<svg width="60" height="15" viewBox="0 0 60 15" xmlns="http://www.w3.org/2000/svg" xmlns:xlink="http://www.w3.org/1999/xlink">
    <defs>
        <path id="kh1p72xnxa" d="M0 0h10.827v12.188H0z"/>
    </defs>
    <g fill="none" fill-rule="evenodd">
        <path d="M17.367 10.716c-1.774 0-3.212-1.494-3.212-3.338 0-1.843 1.438-3.338 3.212-3.338 1.775 0 3.213 1.495 3.213 3.338 0 1.844-1.438 3.338-3.213 3.338m0-9.667c-3.364 0-6.089 2.834-6.089 6.329 0 3.496 2.725 6.327 6.09 6.327 3.363 0 6.09-2.831 6.09-6.327 0-3.495-2.727-6.33-6.09-6.33M40.377 10.716c-1.774 0-3.213-1.494-3.213-3.338 0-1.843 1.439-3.338 3.213-3.338 1.775 0 3.21 1.495 3.21 3.338 0 1.844-1.435 3.338-3.21 3.338m0-9.667c-3.364 0-6.091 2.834-6.091 6.329 0 3.496 2.727 6.327 6.091 6.327 3.362 0 6.09-2.831 6.09-6.327 0-3.495-2.728-6.33-6.09-6.33M29.079 1.518h-2.914v12.187h6.767V10.88H29.08zM6.632 1.518 3 6.576V1.52H0v12.185h3V8.648l3.632 5.057h3.744L5.788 7.612l4.588-6.094z" fill="#FFF"/>
        <g transform="translate(49.173 1.518)">
            <mask id="d9szh6catb" fill="#fff">
                <use xlink:href="#kh1p72xnxa"/>
            </mask>
            <path fill="#FFF" mask="url(#d9szh6catb)" d="M7.84 0v6.971H7.81L3.019 0H0v12.188h2.99v-7.46h.03l5.127 7.46h2.68V0z"/>
        </g>
    </g>
</svg>
