<svg id="그룹_518" data-name="그룹 518" xmlns="http://www.w3.org/2000/svg" xmlns:xlink="http://www.w3.org/1999/xlink" width="45.844" height="40.241" viewBox="0 0 45.844 40.241">
  <defs>
    <clipPath id="clip-path">
      <rect id="사각형_737" data-name="사각형 737" width="45.844" height="40.241" fill="#cdaf82"/>
    </clipPath>
  </defs>
  <rect id="사각형_735" data-name="사각형 735" width="45.844" height="1.058" transform="translate(0 0)" fill="#cdaf82"/>
  <rect id="사각형_736" data-name="사각형 736" width="45.844" height="1.052" transform="translate(0 39.188)" fill="#cdaf82"/>
  <g id="그룹_517" data-name="그룹 517" transform="translate(0 0)">
    <g id="그룹_516" data-name="그룹 516" clip-path="url(#clip-path)">
      <path id="패스_1187" data-name="패스 1187" d="M18.167,15.414a1.5,1.5,0,0,1,.71-1.467,4.484,4.484,0,0,1,1.561-.258v-.623H15.911v-.759h5.46v-.667h-5.46V6.71a2.313,2.313,0,0,1,1.105-2.277,6.993,6.993,0,0,1,2.439-.414V3.049H1.651V4.02a6.654,6.654,0,0,1,2.356.428A2.333,2.333,0,0,1,5.09,6.71V34.795a2.355,2.355,0,0,1-1.133,2.29,5.837,5.837,0,0,1-2.306.39v.983H22.426v-.679a2.674,2.674,0,0,1-1.33-.26,1.624,1.624,0,0,1-.787-1.582V24.516a1.054,1.054,0,0,1,.5-1.019,2.863,2.863,0,0,1,1.1-.178v-.443H18.167v-.528h4.322v-.47H18.167ZM9.424,35.658a1.176,1.176,0,0,1-2.352,0V5.941a1.176,1.176,0,0,1,2.352,0Zm4.511,0a1.18,1.18,0,0,1-2.359,0V5.941a1.18,1.18,0,0,1,2.359,0Zm2.925.632a.506.506,0,0,1-.471.467.5.5,0,0,1-.479-.467V13.917a.855.855,0,0,1,.16.019.976.976,0,0,1,.627.426,1.156,1.156,0,0,1,.162.543ZM18.34,23.483a.87.87,0,0,1,.575.292.911.911,0,0,1,.117.5V36.318a.414.414,0,0,1-.393.439.47.47,0,0,1-.471-.439V23.494a.543.543,0,0,1,.173-.01" transform="translate(-0.33 -0.609)" fill="#cdaf82"/>
      <path id="패스_1188" data-name="패스 1188" d="M48.1,4.447A6.615,6.615,0,0,1,50.45,4.02V3.049H32.644V4.02a7.05,7.05,0,0,1,2.438.413A2.312,2.312,0,0,1,36.188,6.71v4.931H30.723v.667h5.464v.759H31.66v.623a4.453,4.453,0,0,1,1.564.258,1.5,1.5,0,0,1,.711,1.466v6.465H29.611v.469h4.324v.529H30.2v.443a2.96,2.96,0,0,1,1.1.177,1.067,1.067,0,0,1,.5,1.02l-.012,11.419A1.625,1.625,0,0,1,31,37.518a2.675,2.675,0,0,1-1.337.26v.679H50.45v-.984a5.823,5.823,0,0,1-2.306-.39,2.349,2.349,0,0,1-1.135-2.289V6.71A2.33,2.33,0,0,1,48.1,4.447M33.935,36.318a.475.475,0,0,1-.474.439.415.415,0,0,1-.394-.439V24.272a.912.912,0,0,1,.119-.5.858.858,0,0,1,.578-.291.545.545,0,0,1,.17.01Zm2.253-.027a.5.5,0,0,1-.47.467.5.5,0,0,1-.474-.467V14.905a1.129,1.129,0,0,1,.156-.544.973.973,0,0,1,.631-.425.775.775,0,0,1,.156-.02Zm4.341-.632a1.181,1.181,0,0,1-2.362,0V5.941a1.181,1.181,0,0,1,2.362,0Zm4.5,0a1.178,1.178,0,0,1-2.357,0V5.941a1.179,1.179,0,0,1,2.357,0Z" transform="translate(-5.913 -0.609)" fill="#cdaf82"/>
    </g>
  </g>
</svg>
