<svg width="27" height="19" viewBox="0 0 27 19" fill="none" xmlns="http://www.w3.org/2000/svg">
<path fill-rule="evenodd" clip-rule="evenodd" d="M25.8854 3.67183C25.5864 2.57094 24.7054 1.70391 23.5867 1.40967C21.5591 0.875 13.4287 0.875 13.4287 0.875C13.4287 0.875 5.29833 0.875 3.27068 1.40967C2.15205 1.70395 1.27103 2.57094 0.972006 3.67183C0.428711 5.66727 0.428711 9.83056 0.428711 9.83056C0.428711 9.83056 0.428711 13.9939 0.972006 15.9893C1.27103 17.0902 2.15205 17.9211 3.27068 18.2153C5.29833 18.75 13.4287 18.75 13.4287 18.75C13.4287 18.75 21.5591 18.75 23.5867 18.2153C24.7054 17.9211 25.5864 17.0902 25.8854 15.9893C26.4287 13.9939 26.4287 9.83056 26.4287 9.83056C26.4287 9.83056 26.4287 5.66727 25.8854 3.67183ZM10.1787 13.875V5.75L16.6787 9.8126L10.1787 13.875Z" fill="#C61D23"/>
</svg>
