<svg width="115" height="130" viewBox="0 0 115 130" fill="none" xmlns="http://www.w3.org/2000/svg">
<path d="M71.4216 111.803H91.087C102.632 111.803 112 102.461 112 90.9242V23.8788C112 12.3423 102.632 3 91.087 3H23.913C12.3685 3 3 12.3423 3 23.8788V90.9242C3 102.461 12.3685 111.803 23.913 111.803H43.5141L54.7046 125.868C55.2623 126.569 56.104 126.984 56.9996 127C57.8952 127.015 58.7509 126.63 59.3328 125.949L71.4216 111.803Z" stroke="black" stroke-width="6" stroke-linejoin="round"/>
<path d="M76.7262 46.7038C76.4394 46.9261 71.4076 49.7525 71.4076 56.0401C71.4076 63.3124 77.8088 65.8848 78 65.9481C77.9682 66.1068 76.9809 69.4731 74.6241 72.9027C72.5224 75.9197 70.3247 78.9364 66.9809 78.9364C63.6371 78.9364 62.7771 76.9992 58.9235 76.9992C55.1656 76.9992 53.828 79 50.7706 79C47.7132 79 45.5794 76.2053 43.1274 72.7757C40.2929 68.7425 38 62.4865 38 56.5481C38 47.0211 44.2103 41.9717 50.3247 41.9717C53.5733 41.9717 56.28 44.0995 58.3182 44.0995C60.2609 44.0995 63.2865 41.8447 66.9806 41.8447C68.382 41.845 73.4141 41.9723 76.7262 46.7038ZM65.2294 37.8121C66.758 36.002 67.8409 33.4933 67.8409 30.9845C67.8409 30.6353 67.8091 30.286 67.7453 30C65.2612 30.0953 62.2994 31.6515 60.5159 33.7156C59.1147 35.3034 57.8088 37.8121 57.8088 40.3528C57.8088 40.7338 57.8727 41.1151 57.9044 41.2421C58.0635 41.2737 58.3186 41.3057 58.5733 41.3057C60.8027 41.3054 63.605 39.8129 65.2294 37.8121Z" fill="black"/>
</svg>
