<?xml version="1.0" encoding="utf-8"?>
<!-- Generator: Adobe Illustrator 27.0.0, SVG Export Plug-In . SVG Version: 6.00 Build 0)  -->
<svg version="1.1" id="Layer_1" xmlns="http://www.w3.org/2000/svg" xmlns:xlink="http://www.w3.org/1999/xlink" x="0px" y="0px"
	 viewBox="0 0 1280 720" style="enable-background:new 0 0 1280 720;" xml:space="preserve">
<style type="text/css">
	.st0{fill:#FFFFFF;}
	.st1{display:none;}
	.st2{display:inline;}
	.st3{display:inline;fill:#020202;}
</style>
<g id="Layer_1_00000011713390161727735590000016963397589977930393_">
	<g>
		<path class="st0" d="M405.6,480.5l-49.5-49.3V233.8h82.4v197.4h30.3v49.3H405.6z M481.9,480.5v-49.3h30.5V233.8h82.2v197.4
			l-49.3,49.3H481.9z"/>
		<path class="st0" d="M788.4,480.5v-92.4H681.7l-49.5-49.5V283l49.5-49.3h27.9v87.6H823l47.8,49.5v60.4l-49.3,49.3L788.4,480.5
			L788.4,480.5z M673.7,480.5l-41.5-49.3v-24.7h82.2v29.4h61v44.6H673.7z M788.4,302.9v-24.7h-65.8v-44.4h98.7l42.8,42.9v26.2H788.4
			z"/>
		<path class="st0" d="M908.2,480.5V233.8h82.2v246.7H908.2z M1064.3,480.5V380.3h-61v-49.5h60.4v-97h82.9v246.7H1064.3z"/>
	</g>
	<polygon class="st0" points="463.3,523 463.1,523 320.9,523 252.7,523 252.7,49 95.7,49 95.7,674 231.3,674 236.4,674 252.7,674 
		463.1,674 520.3,674 520.3,523 	"/>
	<rect x="301" y="48" class="st0" width="884" height="150"/>
	<rect x="617" y="522" class="st0" width="568" height="150"/>
</g>
<g id="Layer_2_00000150796936974621269440000012262702414706289797_" class="st1">
	<path class="st2" d="M405.6,479l-49.5-49.3V232.3h82.4v197.4h25.3V479H405.6z M486.9,479v-49.3h25.5V232.3h82.2v197.4L545.3,479
		H486.9z"/>
	<path class="st2" d="M788.4,479v-92.4H681.7l-49.5-49.5v-55.6l49.5-49.3h27.9v87.6H823l47.8,49.5v60.4L821.5,479H788.4z
		 M714.4,434.4h54V479h-94.7l-39.5-44.3L714.4,434.4z M865.6,276.7h-77.2h-58.8v-44.4h91.7l42.8,42.9L865.6,276.7z"/>
	<path class="st2" d="M908.2,479V232.3h82.2V479H908.2z M1064.3,479V378.8h-54v-49.5h53.4v-97h82.9V479H1064.3z"/>
	<polygon class="st2" points="463.3,521.5 463.1,521.5 320.9,521.5 252.7,521.5 252.7,47.5 95.7,47.5 95.7,672.5 231.3,672.5 
		236.4,672.5 252.7,672.5 463.1,672.5 520.3,672.5 520.3,521.5 	"/>
	<rect x="301" y="48" class="st3" width="884" height="150"/>
	<rect x="617" y="522" class="st2" width="568" height="150"/>
</g>
</svg>
