<svg width="230" height="64" viewBox="0 0 230 64" fill="none" xmlns="http://www.w3.org/2000/svg">
<path d="M0 32C0 14.3269 14.3269 0 32 0H198C215.673 0 230 14.3269 230 32C230 49.6731 215.673 64 198 64H32C14.3269 64 0 49.6731 0 32Z" fill="white"/>
<path d="M67.563 32.8637C67.5763 31.9601 67.8256 31.0744 68.2877 30.2889C68.7498 29.5034 69.4099 28.8435 70.2065 28.3706C69.7002 27.6726 69.0325 27.0983 68.2564 26.6935C67.4803 26.2886 66.6172 26.0643 65.7357 26.0383C63.8552 25.8439 62.0337 27.1244 61.0757 27.1244C60.1177 27.1244 58.6215 26.0554 57.0366 26.084C56.0091 26.1177 55.008 26.4076 54.1304 26.9254C53.2528 27.4432 52.5285 28.1714 52.0277 29.0394C49.8633 32.6636 51.4778 37.9856 53.5535 40.9181C54.5943 42.3472 55.8066 43.9535 57.3915 43.8963C58.9763 43.8392 59.5204 42.936 61.395 42.936C63.2697 42.936 63.8019 43.8963 65.4164 43.8563C67.0308 43.8163 68.1308 42.4158 69.1302 40.9695C69.8772 39.9489 70.452 38.8202 70.8333 37.6254C69.865 37.2295 69.0386 36.5668 68.4571 35.7201C67.8756 34.8734 67.5647 33.88 67.563 32.8637Z" fill="black"/>
<path d="M64.5175 24.1119C65.4367 23.0618 65.8932 21.7052 65.7889 20.3333C64.4013 20.4735 63.1194 21.1144 62.1993 22.1283C61.7489 22.6229 61.4041 23.1988 61.1849 23.8227C60.9657 24.4467 60.8763 25.1064 60.9219 25.7639C61.6151 25.7706 62.3009 25.6255 62.9277 25.3394C63.5545 25.0532 64.1061 24.6336 64.5411 24.1119" fill="black"/>
<path d="M95.848 35.06L93.67 29.274C93.494 28.8267 93.3143 28.2583 93.131 27.569C93.0503 27.9137 92.9623 28.2327 92.867 28.526C92.7716 28.812 92.6836 29.065 92.603 29.285L90.425 35.06H95.848ZM100.721 41H98.73C98.5026 41 98.3193 40.945 98.18 40.835C98.0406 40.7177 97.9343 40.5747 97.861 40.406L96.541 36.908H89.721L88.401 40.406C88.3423 40.5527 88.2396 40.6883 88.093 40.813C87.9463 40.9377 87.763 41 87.543 41H85.552L91.833 25.16H94.44L100.721 41ZM104.452 38.184C104.782 38.6093 105.141 38.91 105.53 39.086C105.926 39.2547 106.362 39.339 106.839 39.339C107.763 39.339 108.481 39.0017 108.995 38.327C109.515 37.6523 109.776 36.6477 109.776 35.313C109.776 34.6237 109.717 34.037 109.6 33.553C109.482 33.0617 109.314 32.662 109.094 32.354C108.874 32.046 108.606 31.8223 108.291 31.683C107.975 31.5437 107.62 31.474 107.224 31.474C106.622 31.474 106.102 31.606 105.662 31.87C105.229 32.1267 104.826 32.497 104.452 32.981V38.184ZM104.331 31.408C104.8 30.858 105.332 30.4143 105.926 30.077C106.527 29.7397 107.224 29.571 108.016 29.571C108.646 29.571 109.218 29.6993 109.732 29.956C110.245 30.2053 110.685 30.572 111.052 31.056C111.418 31.54 111.701 32.1413 111.899 32.86C112.104 33.5713 112.207 34.389 112.207 35.313C112.207 36.1417 112.093 36.9153 111.866 37.634C111.646 38.3453 111.327 38.965 110.909 39.493C110.491 40.0137 109.985 40.4243 109.391 40.725C108.797 41.0183 108.126 41.165 107.378 41.165C106.718 41.165 106.157 41.0587 105.695 40.846C105.24 40.6333 104.826 40.34 104.452 39.966V44.729H102.087V29.78H103.517C103.839 29.78 104.045 29.9303 104.133 30.231L104.331 31.408ZM116.869 38.184C117.199 38.6093 117.559 38.91 117.947 39.086C118.343 39.2547 118.78 39.339 119.256 39.339C120.18 39.339 120.899 39.0017 121.412 38.327C121.933 37.6523 122.193 36.6477 122.193 35.313C122.193 34.6237 122.135 34.037 122.017 33.553C121.9 33.0617 121.731 32.662 121.511 32.354C121.291 32.046 121.024 31.8223 120.708 31.683C120.393 31.5437 120.037 31.474 119.641 31.474C119.04 31.474 118.519 31.606 118.079 31.87C117.647 32.1267 117.243 32.497 116.869 32.981V38.184ZM116.748 31.408C117.218 30.858 117.749 30.4143 118.343 30.077C118.945 29.7397 119.641 29.571 120.433 29.571C121.064 29.571 121.636 29.6993 122.149 29.956C122.663 30.2053 123.103 30.572 123.469 31.056C123.836 31.54 124.118 32.1413 124.316 32.86C124.522 33.5713 124.624 34.389 124.624 35.313C124.624 36.1417 124.511 36.9153 124.283 37.634C124.063 38.3453 123.744 38.965 123.326 39.493C122.908 40.0137 122.402 40.4243 121.808 40.725C121.214 41.0183 120.543 41.165 119.795 41.165C119.135 41.165 118.574 41.0587 118.112 40.846C117.658 40.6333 117.243 40.34 116.869 39.966V44.729H114.504V29.78H115.934C116.257 29.78 116.462 29.9303 116.55 30.231L116.748 31.408ZM141.124 27.866C141.043 27.998 140.959 28.097 140.871 28.163C140.783 28.2217 140.673 28.251 140.541 28.251C140.402 28.251 140.244 28.1923 140.068 28.075C139.899 27.9577 139.687 27.8293 139.43 27.69C139.181 27.5433 138.884 27.4113 138.539 27.294C138.194 27.1693 137.784 27.107 137.307 27.107C136.867 27.107 136.478 27.162 136.141 27.272C135.811 27.382 135.532 27.536 135.305 27.734C135.078 27.932 134.905 28.1667 134.788 28.438C134.678 28.702 134.623 28.9917 134.623 29.307C134.623 29.7103 134.729 30.0477 134.942 30.319C135.155 30.583 135.433 30.8103 135.778 31.001C136.13 31.1917 136.53 31.3603 136.977 31.507C137.424 31.6463 137.879 31.7967 138.341 31.958C138.81 32.1193 139.269 32.3027 139.716 32.508C140.163 32.7133 140.559 32.9737 140.904 33.289C141.256 33.6043 141.538 33.9893 141.751 34.444C141.964 34.8987 142.07 35.4523 142.07 36.105C142.07 36.809 141.949 37.469 141.707 38.085C141.465 38.701 141.113 39.24 140.651 39.702C140.196 40.1567 139.632 40.516 138.957 40.78C138.29 41.044 137.527 41.176 136.669 41.176C136.163 41.176 135.668 41.1247 135.184 41.022C134.707 40.9267 134.249 40.791 133.809 40.615C133.376 40.4317 132.969 40.2117 132.588 39.955C132.207 39.6983 131.866 39.4123 131.565 39.097L132.313 37.865C132.379 37.7623 132.463 37.6817 132.566 37.623C132.669 37.5643 132.782 37.535 132.907 37.535C133.076 37.535 133.263 37.6157 133.468 37.777C133.673 37.931 133.919 38.1033 134.205 38.294C134.498 38.4773 134.85 38.6497 135.261 38.811C135.672 38.965 136.163 39.042 136.735 39.042C137.666 39.042 138.385 38.8147 138.891 38.36C139.404 37.9053 139.661 37.2783 139.661 36.479C139.661 36.0317 139.555 35.6687 139.342 35.39C139.129 35.104 138.847 34.8657 138.495 34.675C138.15 34.4843 137.754 34.323 137.307 34.191C136.86 34.059 136.405 33.9197 135.943 33.773C135.481 33.619 135.026 33.443 134.579 33.245C134.132 33.0397 133.732 32.7757 133.38 32.453C133.035 32.123 132.757 31.7197 132.544 31.243C132.331 30.759 132.225 30.1577 132.225 29.439C132.225 28.867 132.335 28.3133 132.555 27.778C132.782 27.2427 133.109 26.7697 133.534 26.359C133.967 25.941 134.498 25.6073 135.129 25.358C135.76 25.1087 136.478 24.984 137.285 24.984C138.194 24.984 139.027 25.127 139.782 25.413C140.545 25.699 141.201 26.106 141.751 26.634L141.124 27.866ZM147.514 41.176C146.582 41.176 145.864 40.9157 145.358 40.395C144.859 39.867 144.61 39.1263 144.61 38.173V31.639H143.378C143.246 31.639 143.132 31.5987 143.037 31.518C142.941 31.43 142.894 31.3017 142.894 31.133V30.176L144.709 29.912L145.226 26.667C145.262 26.5423 145.325 26.4433 145.413 26.37C145.501 26.2893 145.618 26.249 145.765 26.249H146.975V29.934H150.088V31.639H146.975V38.008C146.975 38.4113 147.074 38.7193 147.272 38.932C147.47 39.1447 147.734 39.251 148.064 39.251C148.247 39.251 148.405 39.229 148.537 39.185C148.669 39.1337 148.782 39.0823 148.878 39.031C148.973 38.9723 149.054 38.921 149.12 38.877C149.193 38.8257 149.263 38.8 149.329 38.8C149.461 38.8 149.567 38.8733 149.648 39.02L150.352 40.175C149.985 40.4977 149.552 40.747 149.054 40.923C148.555 41.0917 148.042 41.176 147.514 41.176ZM156.717 29.604C157.545 29.604 158.293 29.7397 158.961 30.011C159.635 30.2823 160.207 30.6673 160.677 31.166C161.153 31.6647 161.52 32.2697 161.777 32.981C162.033 33.6923 162.162 34.4917 162.162 35.379C162.162 36.2663 162.033 37.0657 161.777 37.777C161.52 38.4883 161.153 39.097 160.677 39.603C160.207 40.1017 159.635 40.4867 158.961 40.758C158.293 41.0293 157.545 41.165 156.717 41.165C155.881 41.165 155.125 41.0293 154.451 40.758C153.783 40.4867 153.211 40.1017 152.735 39.603C152.258 39.097 151.891 38.4883 151.635 37.777C151.378 37.0657 151.25 36.2663 151.25 35.379C151.25 34.4917 151.378 33.6923 151.635 32.981C151.891 32.2697 152.258 31.6647 152.735 31.166C153.211 30.6673 153.783 30.2823 154.451 30.011C155.125 29.7397 155.881 29.604 156.717 29.604ZM156.717 39.317C157.729 39.317 158.48 38.9797 158.972 38.305C159.47 37.623 159.72 36.6513 159.72 35.39C159.72 34.1287 159.47 33.157 158.972 32.475C158.48 31.7857 157.729 31.441 156.717 31.441C155.69 31.441 154.927 31.7857 154.429 32.475C153.93 33.157 153.681 34.1287 153.681 35.39C153.681 36.6513 153.93 37.623 154.429 38.305C154.927 38.9797 155.69 39.317 156.717 39.317ZM166.667 31.859C167.019 31.1477 167.444 30.5903 167.943 30.187C168.442 29.7763 169.039 29.571 169.736 29.571C169.978 29.571 170.205 29.6003 170.418 29.659C170.631 29.7103 170.821 29.791 170.99 29.901L170.825 31.683C170.796 31.8077 170.748 31.8957 170.682 31.947C170.623 31.991 170.543 32.013 170.44 32.013C170.33 32.013 170.172 31.9947 169.967 31.958C169.762 31.914 169.545 31.892 169.318 31.892C168.988 31.892 168.695 31.9397 168.438 32.035C168.189 32.1303 167.961 32.2697 167.756 32.453C167.558 32.6363 167.382 32.86 167.228 33.124C167.074 33.388 166.931 33.6887 166.799 34.026V41H164.434V29.78H165.809C166.058 29.78 166.231 29.8277 166.326 29.923C166.421 30.011 166.487 30.1687 166.524 30.396L166.667 31.859ZM179.528 34.125C179.528 33.729 179.469 33.3623 179.352 33.025C179.242 32.6803 179.077 32.3833 178.857 32.134C178.637 31.8773 178.362 31.6793 178.032 31.54C177.709 31.3933 177.335 31.32 176.91 31.32C176.052 31.32 175.377 31.5657 174.886 32.057C174.394 32.5483 174.083 33.2377 173.951 34.125H179.528ZM173.885 35.577C173.914 36.215 174.013 36.7687 174.182 37.238C174.35 37.7 174.574 38.085 174.853 38.393C175.139 38.701 175.476 38.932 175.865 39.086C176.261 39.2327 176.701 39.306 177.185 39.306C177.647 39.306 178.046 39.2547 178.384 39.152C178.721 39.042 179.014 38.9247 179.264 38.8C179.513 38.668 179.726 38.5507 179.902 38.448C180.078 38.338 180.239 38.283 180.386 38.283C180.576 38.283 180.723 38.3563 180.826 38.503L181.497 39.372C181.218 39.702 180.903 39.9807 180.551 40.208C180.199 40.4353 179.825 40.6223 179.429 40.769C179.033 40.9083 178.626 41.0073 178.208 41.066C177.79 41.132 177.383 41.165 176.987 41.165C176.209 41.165 175.487 41.0367 174.82 40.78C174.16 40.516 173.584 40.131 173.093 39.625C172.609 39.119 172.227 38.492 171.949 37.744C171.677 36.996 171.542 36.1343 171.542 35.159C171.542 34.3817 171.663 33.6557 171.905 32.981C172.154 32.3063 172.506 31.7197 172.961 31.221C173.423 30.7223 173.98 30.33 174.633 30.044C175.293 29.7507 176.037 29.604 176.866 29.604C177.555 29.604 178.193 29.7177 178.78 29.945C179.366 30.165 179.872 30.4913 180.298 30.924C180.723 31.3567 181.053 31.8883 181.288 32.519C181.53 33.1423 181.651 33.8537 181.651 34.653C181.651 35.0197 181.61 35.2653 181.53 35.39C181.449 35.5147 181.302 35.577 181.09 35.577H173.885Z" fill="black"/>
</svg>
