<svg width="230" height="64" viewBox="0 0 230 64" fill="none" xmlns="http://www.w3.org/2000/svg">
<path d="M0 32C0 14.3269 14.3269 0 32 0H198C215.673 0 230 14.3269 230 32C230 49.6731 215.673 64 198 64H32C14.3269 64 0 49.6731 0 32Z" fill="white"/>
<path d="M60.5031 20.3333C51.2898 20.3333 48.8334 22.7898 48.8334 32.003C48.8334 41.2163 51.2898 43.6666 60.5031 43.6666C69.7163 43.6666 72.1667 41.2102 72.1667 32.003C72.1667 22.7958 69.7103 20.3333 60.5031 20.3333Z" fill="url(#paint0_linear_415_1069)"/>
<mask id="mask0_415_1069" style="mask-type:alpha" maskUnits="userSpaceOnUse" x="48" y="20" width="25" height="24">
<path d="M60.5031 20.3333C51.2898 20.3333 48.8334 22.7898 48.8334 32.003C48.8334 41.2163 51.2898 43.6666 60.5031 43.6666C69.7163 43.6666 72.1667 41.2102 72.1667 32.003C72.1667 22.7958 69.7103 20.3333 60.5031 20.3333Z" fill="#C4C4C4"/>
</mask>
<g mask="url(#mask0_415_1069)">
<path d="M56.9852 43.6605L72.1668 43.6666V23.1961L56.9852 33.7316V43.6605Z" fill="url(#paint1_linear_415_1069)"/>
</g>
<mask id="mask1_415_1069" style="mask-type:alpha" maskUnits="userSpaceOnUse" x="48" y="20" width="25" height="24">
<path d="M60.5031 20.3333C51.2898 20.3333 48.8334 22.7898 48.8334 32.003C48.8334 41.2163 51.2898 43.6666 60.5031 43.6666C69.7163 43.6666 72.1667 41.2102 72.1667 32.003C72.1667 22.7958 69.7103 20.3333 60.5031 20.3333Z" fill="#C4C4C4"/>
</mask>
<g mask="url(#mask1_415_1069)">
<path d="M56.9852 43.6605L48.8334 43.6666V24.397L56.9852 33.7316V43.6605Z" fill="url(#paint2_linear_415_1069)"/>
</g>
<path d="M60.6731 25.2886L56.4819 27.7148C56.1248 27.9207 55.8641 28.26 55.7572 28.6581C55.6503 29.0562 55.7059 29.4805 55.9118 29.8376C56.1177 30.1947 56.457 30.4554 56.8551 30.5624C57.2532 30.6693 57.6775 30.6137 58.0346 30.4078L61.5829 28.3577L59.8967 30.1773V37.2798C59.8967 37.6916 60.0603 38.0866 60.3515 38.3777C60.6427 38.6689 61.0376 38.8325 61.4494 38.8325C61.8612 38.8325 62.2562 38.6689 62.5474 38.3777C62.8386 38.0866 63.0021 37.6916 63.0021 37.2798V26.6169C63.0023 26.3427 62.9313 26.073 62.7959 25.8345C62.5841 25.4836 62.243 25.2299 61.846 25.1278C61.4491 25.0257 61.0279 25.0835 60.6731 25.2886Z" fill="white"/>
<path d="M101.533 33.08C101.533 34.2533 101.342 35.335 100.961 36.325C100.579 37.315 100.04 38.1693 99.3436 38.888C98.6542 39.5993 97.8219 40.1567 96.8466 40.56C95.8786 40.9633 94.8006 41.165 93.6126 41.165C92.4319 41.165 91.3539 40.9633 90.3786 40.56C89.4106 40.1567 88.5782 39.5993 87.8816 38.888C87.1849 38.1693 86.6459 37.315 86.2646 36.325C85.8832 35.335 85.6926 34.2533 85.6926 33.08C85.6926 31.9067 85.8832 30.825 86.2646 29.835C86.6459 28.845 87.1849 27.9907 87.8816 27.272C88.5782 26.5533 89.4106 25.9923 90.3786 25.589C91.3539 25.1857 92.4319 24.984 93.6126 24.984C94.8006 24.984 95.8786 25.1857 96.8466 25.589C97.8219 25.9923 98.6542 26.5533 99.3436 27.272C100.04 27.9907 100.579 28.845 100.961 29.835C101.342 30.825 101.533 31.9067 101.533 33.08ZM98.9036 33.08C98.9036 32.1707 98.7789 31.353 98.5296 30.627C98.2876 29.901 97.9356 29.285 97.4736 28.779C97.0189 28.273 96.4652 27.8843 95.8126 27.613C95.1599 27.3417 94.4266 27.206 93.6126 27.206C92.8059 27.206 92.0762 27.3417 91.4236 27.613C90.7709 27.8843 90.2136 28.273 89.7516 28.779C89.2896 29.285 88.9339 29.901 88.6846 30.627C88.4352 31.353 88.3106 32.1707 88.3106 33.08C88.3106 33.9967 88.4352 34.818 88.6846 35.544C88.9339 36.27 89.2896 36.886 89.7516 37.392C90.2136 37.8907 90.7709 38.2757 91.4236 38.547C92.0762 38.811 92.8059 38.943 93.6126 38.943C94.4266 38.943 95.1599 38.811 95.8126 38.547C96.4652 38.2757 97.0189 37.8907 97.4736 37.392C97.9356 36.886 98.2876 36.27 98.5296 35.544C98.7789 34.818 98.9036 33.9967 98.9036 33.08ZM105.93 31.265C106.172 31.0157 106.422 30.792 106.678 30.594C106.942 30.3887 107.221 30.2127 107.514 30.066C107.808 29.9193 108.119 29.8057 108.449 29.725C108.779 29.6443 109.139 29.604 109.527 29.604C110.143 29.604 110.682 29.7067 111.144 29.912C111.614 30.1173 112.006 30.407 112.321 30.781C112.644 31.155 112.886 31.606 113.047 32.134C113.209 32.6547 113.289 33.2303 113.289 33.861V41H110.935V33.861C110.935 33.1057 110.759 32.519 110.407 32.101C110.063 31.683 109.535 31.474 108.823 31.474C108.295 31.474 107.804 31.595 107.349 31.837C106.902 32.079 106.48 32.409 106.084 32.827V41H103.719V29.78H105.149C105.472 29.78 105.677 29.9303 105.765 30.231L105.93 31.265ZM123.41 34.125C123.41 33.729 123.352 33.3623 123.234 33.025C123.124 32.6803 122.959 32.3833 122.739 32.134C122.519 31.8773 122.244 31.6793 121.914 31.54C121.592 31.3933 121.218 31.32 120.792 31.32C119.934 31.32 119.26 31.5657 118.768 32.057C118.277 32.5483 117.965 33.2377 117.833 34.125H123.41ZM117.767 35.577C117.797 36.215 117.896 36.7687 118.064 37.238C118.233 37.7 118.457 38.085 118.735 38.393C119.021 38.701 119.359 38.932 119.747 39.086C120.143 39.2327 120.583 39.306 121.067 39.306C121.529 39.306 121.929 39.2547 122.266 39.152C122.604 39.042 122.897 38.9247 123.146 38.8C123.396 38.668 123.608 38.5507 123.784 38.448C123.96 38.338 124.122 38.283 124.268 38.283C124.459 38.283 124.606 38.3563 124.708 38.503L125.379 39.372C125.101 39.702 124.785 39.9807 124.433 40.208C124.081 40.4353 123.707 40.6223 123.311 40.769C122.915 40.9083 122.508 41.0073 122.09 41.066C121.672 41.132 121.265 41.165 120.869 41.165C120.092 41.165 119.37 41.0367 118.702 40.78C118.042 40.516 117.467 40.131 116.975 39.625C116.491 39.119 116.11 38.492 115.831 37.744C115.56 36.996 115.424 36.1343 115.424 35.159C115.424 34.3817 115.545 33.6557 115.787 32.981C116.037 32.3063 116.389 31.7197 116.843 31.221C117.305 30.7223 117.863 30.33 118.515 30.044C119.175 29.7507 119.92 29.604 120.748 29.604C121.438 29.604 122.076 29.7177 122.662 29.945C123.249 30.165 123.755 30.4913 124.18 30.924C124.606 31.3567 124.936 31.8883 125.17 32.519C125.412 33.1423 125.533 33.8537 125.533 34.653C125.533 35.0197 125.493 35.2653 125.412 35.39C125.332 35.5147 125.185 35.577 124.972 35.577H117.767ZM141.94 27.866C141.86 27.998 141.775 28.097 141.687 28.163C141.599 28.2217 141.489 28.251 141.357 28.251C141.218 28.251 141.06 28.1923 140.884 28.075C140.716 27.9577 140.503 27.8293 140.246 27.69C139.997 27.5433 139.7 27.4113 139.355 27.294C139.011 27.1693 138.6 27.107 138.123 27.107C137.683 27.107 137.295 27.162 136.957 27.272C136.627 27.382 136.349 27.536 136.121 27.734C135.894 27.932 135.722 28.1667 135.604 28.438C135.494 28.702 135.439 28.9917 135.439 29.307C135.439 29.7103 135.546 30.0477 135.758 30.319C135.971 30.583 136.25 30.8103 136.594 31.001C136.946 31.1917 137.346 31.3603 137.793 31.507C138.241 31.6463 138.695 31.7967 139.157 31.958C139.627 32.1193 140.085 32.3027 140.532 32.508C140.98 32.7133 141.376 32.9737 141.72 33.289C142.072 33.6043 142.355 33.9893 142.567 34.444C142.78 34.8987 142.886 35.4523 142.886 36.105C142.886 36.809 142.765 37.469 142.523 38.085C142.281 38.701 141.929 39.24 141.467 39.702C141.013 40.1567 140.448 40.516 139.773 40.78C139.106 41.044 138.343 41.176 137.485 41.176C136.979 41.176 136.484 41.1247 136 41.022C135.524 40.9267 135.065 40.791 134.625 40.615C134.193 40.4317 133.786 40.2117 133.404 39.955C133.023 39.6983 132.682 39.4123 132.381 39.097L133.129 37.865C133.195 37.7623 133.28 37.6817 133.382 37.623C133.485 37.5643 133.599 37.535 133.723 37.535C133.892 37.535 134.079 37.6157 134.284 37.777C134.49 37.931 134.735 38.1033 135.021 38.294C135.315 38.4773 135.667 38.6497 136.077 38.811C136.488 38.965 136.979 39.042 137.551 39.042C138.483 39.042 139.201 38.8147 139.707 38.36C140.221 37.9053 140.477 37.2783 140.477 36.479C140.477 36.0317 140.371 35.6687 140.158 35.39C139.946 35.104 139.663 34.8657 139.311 34.675C138.967 34.4843 138.571 34.323 138.123 34.191C137.676 34.059 137.221 33.9197 136.759 33.773C136.297 33.619 135.843 33.443 135.395 33.245C134.948 33.0397 134.548 32.7757 134.196 32.453C133.852 32.123 133.573 31.7197 133.36 31.243C133.148 30.759 133.041 30.1577 133.041 29.439C133.041 28.867 133.151 28.3133 133.371 27.778C133.599 27.2427 133.925 26.7697 134.35 26.359C134.783 25.941 135.315 25.6073 135.945 25.358C136.576 25.1087 137.295 24.984 138.101 24.984C139.011 24.984 139.843 25.127 140.598 25.413C141.361 25.699 142.017 26.106 142.567 26.634L141.94 27.866ZM148.33 41.176C147.399 41.176 146.68 40.9157 146.174 40.395C145.675 39.867 145.426 39.1263 145.426 38.173V31.639H144.194C144.062 31.639 143.948 31.5987 143.853 31.518C143.758 31.43 143.71 31.3017 143.71 31.133V30.176L145.525 29.912L146.042 26.667C146.079 26.5423 146.141 26.4433 146.229 26.37C146.317 26.2893 146.434 26.249 146.581 26.249H147.791V29.934H150.904V31.639H147.791V38.008C147.791 38.4113 147.89 38.7193 148.088 38.932C148.286 39.1447 148.55 39.251 148.88 39.251C149.063 39.251 149.221 39.229 149.353 39.185C149.485 39.1337 149.599 39.0823 149.694 39.031C149.789 38.9723 149.87 38.921 149.936 38.877C150.009 38.8257 150.079 38.8 150.145 38.8C150.277 38.8 150.383 38.8733 150.464 39.02L151.168 40.175C150.801 40.4977 150.369 40.747 149.87 40.923C149.371 41.0917 148.858 41.176 148.33 41.176ZM157.533 29.604C158.362 29.604 159.11 29.7397 159.777 30.011C160.452 30.2823 161.024 30.6673 161.493 31.166C161.97 31.6647 162.337 32.2697 162.593 32.981C162.85 33.6923 162.978 34.4917 162.978 35.379C162.978 36.2663 162.85 37.0657 162.593 37.777C162.337 38.4883 161.97 39.097 161.493 39.603C161.024 40.1017 160.452 40.4867 159.777 40.758C159.11 41.0293 158.362 41.165 157.533 41.165C156.697 41.165 155.942 41.0293 155.267 40.758C154.6 40.4867 154.028 40.1017 153.551 39.603C153.075 39.097 152.708 38.4883 152.451 37.777C152.195 37.0657 152.066 36.2663 152.066 35.379C152.066 34.4917 152.195 33.6923 152.451 32.981C152.708 32.2697 153.075 31.6647 153.551 31.166C154.028 30.6673 154.6 30.2823 155.267 30.011C155.942 29.7397 156.697 29.604 157.533 29.604ZM157.533 39.317C158.545 39.317 159.297 38.9797 159.788 38.305C160.287 37.623 160.536 36.6513 160.536 35.39C160.536 34.1287 160.287 33.157 159.788 32.475C159.297 31.7857 158.545 31.441 157.533 31.441C156.507 31.441 155.744 31.7857 155.245 32.475C154.747 33.157 154.497 34.1287 154.497 35.39C154.497 36.6513 154.747 37.623 155.245 38.305C155.744 38.9797 156.507 39.317 157.533 39.317ZM167.484 31.859C167.836 31.1477 168.261 30.5903 168.76 30.187C169.258 29.7763 169.856 29.571 170.553 29.571C170.795 29.571 171.022 29.6003 171.235 29.659C171.447 29.7103 171.638 29.791 171.807 29.901L171.642 31.683C171.612 31.8077 171.565 31.8957 171.499 31.947C171.44 31.991 171.359 32.013 171.257 32.013C171.147 32.013 170.989 31.9947 170.784 31.958C170.578 31.914 170.362 31.892 170.135 31.892C169.805 31.892 169.511 31.9397 169.255 32.035C169.005 32.1303 168.778 32.2697 168.573 32.453C168.375 32.6363 168.199 32.86 168.045 33.124C167.891 33.388 167.748 33.6887 167.616 34.026V41H165.251V29.78H166.626C166.875 29.78 167.047 29.8277 167.143 29.923C167.238 30.011 167.304 30.1687 167.341 30.396L167.484 31.859ZM180.344 34.125C180.344 33.729 180.285 33.3623 180.168 33.025C180.058 32.6803 179.893 32.3833 179.673 32.134C179.453 31.8773 179.178 31.6793 178.848 31.54C178.525 31.3933 178.151 31.32 177.726 31.32C176.868 31.32 176.193 31.5657 175.702 32.057C175.211 32.5483 174.899 33.2377 174.767 34.125H180.344ZM174.701 35.577C174.73 36.215 174.829 36.7687 174.998 37.238C175.167 37.7 175.39 38.085 175.669 38.393C175.955 38.701 176.292 38.932 176.681 39.086C177.077 39.2327 177.517 39.306 178.001 39.306C178.463 39.306 178.863 39.2547 179.2 39.152C179.537 39.042 179.831 38.9247 180.08 38.8C180.329 38.668 180.542 38.5507 180.718 38.448C180.894 38.338 181.055 38.283 181.202 38.283C181.393 38.283 181.539 38.3563 181.642 38.503L182.313 39.372C182.034 39.702 181.719 39.9807 181.367 40.208C181.015 40.4353 180.641 40.6223 180.245 40.769C179.849 40.9083 179.442 41.0073 179.024 41.066C178.606 41.132 178.199 41.165 177.803 41.165C177.026 41.165 176.303 41.0367 175.636 40.78C174.976 40.516 174.4 40.131 173.909 39.625C173.425 39.119 173.044 38.492 172.765 37.744C172.494 36.996 172.358 36.1343 172.358 35.159C172.358 34.3817 172.479 33.6557 172.721 32.981C172.97 32.3063 173.322 31.7197 173.777 31.221C174.239 30.7223 174.796 30.33 175.449 30.044C176.109 29.7507 176.853 29.604 177.682 29.604C178.371 29.604 179.009 29.7177 179.596 29.945C180.183 30.165 180.689 30.4913 181.114 30.924C181.539 31.3567 181.869 31.8883 182.104 32.519C182.346 33.1423 182.467 33.8537 182.467 34.653C182.467 35.0197 182.427 35.2653 182.346 35.39C182.265 35.5147 182.119 35.577 181.906 35.577H174.701Z" fill="black"/>
<defs>
<linearGradient id="paint0_linear_415_1069" x1="47.1048" y1="18.5137" x2="69.9589" y2="41.5195" gradientUnits="userSpaceOnUse">
<stop stop-color="#F4752E"/>
<stop offset="1" stop-color="#ED1573"/>
</linearGradient>
<linearGradient id="paint1_linear_415_1069" x1="54.5045" y1="24.7731" x2="66.1863" y2="34.8173" gradientUnits="userSpaceOnUse">
<stop stop-color="white" stop-opacity="0.5"/>
<stop offset="1" stop-color="white" stop-opacity="0"/>
</linearGradient>
<linearGradient id="paint2_linear_415_1069" x1="257.764" y1="-15.2983" x2="-65.5924" y2="162.954" gradientUnits="userSpaceOnUse">
<stop stop-color="white" stop-opacity="0.5"/>
<stop offset="1" stop-color="white" stop-opacity="0"/>
</linearGradient>
</defs>
</svg>
