<svg width="230" height="64" viewBox="0 0 230 64" fill="none" xmlns="http://www.w3.org/2000/svg">
<path d="M0 32C0 14.3269 14.3269 0 32 0H198C215.673 0 230 14.3269 230 32C230 49.6731 215.673 64 198 64H32C14.3269 64 0 49.6731 0 32Z" fill="white"/>
<path d="M43.0506 21.8242C42.7796 22.1449 42.6433 22.5562 42.67 22.9733V41.0424C42.6433 41.4594 42.7796 41.8707 43.0506 42.1914L43.1123 42.2524L53.3539 32.1095V31.8705L43.1123 21.7683L43.0506 21.8242Z" fill="#5BC9F4"/>
<path d="M56.7637 35.5004L53.3533 32.1093V31.8703L56.7689 28.4944L56.846 28.5351L60.8891 30.8077C62.0465 31.4585 62.0465 32.516 60.8891 33.1668L56.846 35.4394L56.7637 35.5004Z" fill="url(#paint0_linear_415_1070)"/>
<path d="M56.847 35.4597L53.3543 32.0076L43.0665 42.1759C43.4471 42.5725 44.0952 42.6233 44.7845 42.2267L56.8624 35.4445" fill="url(#paint1_linear_415_1070)"/>
<path d="M56.8464 28.5504L44.7685 21.7732C44.0586 21.3767 43.4311 21.4275 43.0504 21.8241L53.3382 31.9924L56.8464 28.5504Z" fill="url(#paint2_linear_415_1070)"/>
<path d="M90.8959 33.201V39.471C89.3192 40.6077 87.4859 41.176 85.3959 41.176C84.1126 41.176 82.9502 40.978 81.9089 40.582C80.8749 40.1787 79.9912 39.6213 79.2579 38.91C78.5246 38.1913 77.9599 37.337 77.5639 36.347C77.1679 35.357 76.9699 34.268 76.9699 33.08C76.9699 31.8847 77.1606 30.792 77.5419 29.802C77.9232 28.8047 78.4696 27.9503 79.1809 27.239C79.8922 26.5203 80.7502 25.9667 81.7549 25.578C82.7596 25.182 83.8889 24.984 85.1429 24.984C85.7809 24.984 86.3712 25.0353 86.9139 25.138C87.4639 25.2333 87.9736 25.369 88.4429 25.545C88.9122 25.721 89.3449 25.9337 89.7409 26.183C90.1369 26.4323 90.4999 26.711 90.8299 27.019L90.0929 28.196C89.9756 28.3793 89.8252 28.493 89.6419 28.537C89.4586 28.581 89.2606 28.537 89.0479 28.405C88.8352 28.2803 88.6079 28.1483 88.3659 28.009C88.1312 27.8697 87.8599 27.7413 87.5519 27.624C87.2439 27.4993 86.8882 27.4003 86.4849 27.327C86.0816 27.2463 85.6049 27.206 85.0549 27.206C84.2189 27.206 83.4636 27.3453 82.7889 27.624C82.1216 27.8953 81.5496 28.2877 81.0729 28.801C80.5962 29.307 80.2296 29.923 79.9729 30.649C79.7162 31.375 79.5879 32.1853 79.5879 33.08C79.5879 34.026 79.7236 34.873 79.9949 35.621C80.2662 36.3617 80.6512 36.9923 81.1499 37.513C81.6486 38.0263 82.2499 38.4187 82.9539 38.69C83.6652 38.9613 84.4572 39.097 85.3299 39.097C85.9826 39.097 86.5619 39.0273 87.0679 38.888C87.5812 38.7487 88.0836 38.5543 88.5749 38.305V35.159H86.3639C86.1952 35.159 86.0632 35.115 85.9679 35.027C85.8726 34.9317 85.8249 34.8107 85.8249 34.664V33.201H90.8959ZM98.2149 29.604C99.0435 29.604 99.7915 29.7397 100.459 30.011C101.134 30.2823 101.706 30.6673 102.175 31.166C102.652 31.6647 103.018 32.2697 103.275 32.981C103.532 33.6923 103.66 34.4917 103.66 35.379C103.66 36.2663 103.532 37.0657 103.275 37.777C103.018 38.4883 102.652 39.097 102.175 39.603C101.706 40.1017 101.134 40.4867 100.459 40.758C99.7915 41.0293 99.0435 41.165 98.2149 41.165C97.3789 41.165 96.6235 41.0293 95.9489 40.758C95.2815 40.4867 94.7095 40.1017 94.2329 39.603C93.7562 39.097 93.3895 38.4883 93.1329 37.777C92.8762 37.0657 92.7479 36.2663 92.7479 35.379C92.7479 34.4917 92.8762 33.6923 93.1329 32.981C93.3895 32.2697 93.7562 31.6647 94.2329 31.166C94.7095 30.6673 95.2815 30.2823 95.9489 30.011C96.6235 29.7397 97.3789 29.604 98.2149 29.604ZM98.2149 39.317C99.2269 39.317 99.9785 38.9797 100.47 38.305C100.969 37.623 101.218 36.6513 101.218 35.39C101.218 34.1287 100.969 33.157 100.47 32.475C99.9785 31.7857 99.2269 31.441 98.2149 31.441C97.1882 31.441 96.4255 31.7857 95.9269 32.475C95.4282 33.157 95.1789 34.1287 95.1789 35.39C95.1789 36.6513 95.4282 37.623 95.9269 38.305C96.4255 38.9797 97.1882 39.317 98.2149 39.317ZM110.783 29.604C111.612 29.604 112.36 29.7397 113.027 30.011C113.702 30.2823 114.274 30.6673 114.743 31.166C115.22 31.6647 115.587 32.2697 115.843 32.981C116.1 33.6923 116.228 34.4917 116.228 35.379C116.228 36.2663 116.1 37.0657 115.843 37.777C115.587 38.4883 115.22 39.097 114.743 39.603C114.274 40.1017 113.702 40.4867 113.027 40.758C112.36 41.0293 111.612 41.165 110.783 41.165C109.947 41.165 109.192 41.0293 108.517 40.758C107.85 40.4867 107.278 40.1017 106.801 39.603C106.325 39.097 105.958 38.4883 105.701 37.777C105.445 37.0657 105.316 36.2663 105.316 35.379C105.316 34.4917 105.445 33.6923 105.701 32.981C105.958 32.2697 106.325 31.6647 106.801 31.166C107.278 30.6673 107.85 30.2823 108.517 30.011C109.192 29.7397 109.947 29.604 110.783 29.604ZM110.783 39.317C111.795 39.317 112.547 38.9797 113.038 38.305C113.537 37.623 113.786 36.6513 113.786 35.39C113.786 34.1287 113.537 33.157 113.038 32.475C112.547 31.7857 111.795 31.441 110.783 31.441C109.757 31.441 108.994 31.7857 108.495 32.475C107.997 33.157 107.747 34.1287 107.747 35.39C107.747 36.6513 107.997 37.623 108.495 38.305C108.994 38.9797 109.757 39.317 110.783 39.317ZM122.419 35.291C123.152 35.291 123.702 35.104 124.069 34.73C124.435 34.356 124.619 33.8683 124.619 33.267C124.619 32.651 124.435 32.1633 124.069 31.804C123.702 31.4447 123.152 31.265 122.419 31.265C121.693 31.265 121.143 31.4447 120.769 31.804C120.402 32.1633 120.219 32.651 120.219 33.267C120.219 33.5603 120.266 33.8317 120.362 34.081C120.457 34.3303 120.596 34.5467 120.78 34.73C120.963 34.906 121.19 35.0453 121.462 35.148C121.74 35.2433 122.059 35.291 122.419 35.291ZM125.708 41.55C125.708 41.3007 125.634 41.1027 125.488 40.956C125.348 40.802 125.158 40.6847 124.916 40.604C124.674 40.516 124.391 40.4537 124.069 40.417C123.746 40.373 123.401 40.3437 123.035 40.329C122.675 40.307 122.305 40.2887 121.924 40.274C121.55 40.252 121.187 40.2153 120.835 40.164C120.483 40.3473 120.193 40.5673 119.966 40.824C119.746 41.0807 119.636 41.3777 119.636 41.715C119.636 41.935 119.691 42.1403 119.801 42.331C119.918 42.5217 120.094 42.6867 120.329 42.826C120.571 42.9653 120.875 43.0753 121.242 43.156C121.616 43.2367 122.063 43.277 122.584 43.277C123.625 43.277 124.406 43.1157 124.927 42.793C125.447 42.4703 125.708 42.056 125.708 41.55ZM128.084 30.187V31.067C128.084 31.3603 127.908 31.54 127.556 31.606L126.434 31.793C126.624 32.2183 126.72 32.6913 126.72 33.212C126.72 33.762 126.61 34.2607 126.39 34.708C126.177 35.1553 125.88 35.5367 125.499 35.852C125.117 36.1673 124.663 36.4093 124.135 36.578C123.607 36.7467 123.035 36.831 122.419 36.831C122.184 36.831 121.953 36.82 121.726 36.798C121.506 36.7687 121.289 36.732 121.077 36.688C120.864 36.8127 120.706 36.9447 120.604 37.084C120.501 37.2233 120.45 37.3663 120.45 37.513C120.45 37.755 120.556 37.9347 120.769 38.052C120.981 38.1693 121.26 38.2537 121.605 38.305C121.957 38.3563 122.356 38.3893 122.804 38.404C123.251 38.4187 123.706 38.4443 124.168 38.481C124.63 38.5177 125.084 38.58 125.532 38.668C125.979 38.7487 126.375 38.888 126.72 39.086C127.072 39.2767 127.354 39.537 127.567 39.867C127.779 40.197 127.886 40.626 127.886 41.154C127.886 41.638 127.765 42.111 127.523 42.573C127.281 43.035 126.929 43.4457 126.467 43.805C126.012 44.1643 125.455 44.4503 124.795 44.663C124.135 44.883 123.383 44.993 122.54 44.993C121.704 44.993 120.974 44.9123 120.351 44.751C119.735 44.5897 119.218 44.3697 118.8 44.091C118.389 43.8197 118.081 43.5043 117.876 43.145C117.678 42.7857 117.579 42.4117 117.579 42.023C117.579 41.495 117.744 41.044 118.074 40.67C118.411 40.296 118.866 40.0027 119.438 39.79C119.13 39.6433 118.88 39.4417 118.69 39.185C118.506 38.9283 118.415 38.591 118.415 38.173C118.415 37.843 118.536 37.4983 118.778 37.139C119.02 36.7797 119.383 36.4753 119.867 36.226C119.309 35.918 118.869 35.511 118.547 35.005C118.224 34.4917 118.063 33.894 118.063 33.212C118.063 32.6547 118.169 32.1523 118.382 31.705C118.602 31.2577 118.906 30.8763 119.295 30.561C119.683 30.2457 120.142 30.0037 120.67 29.835C121.205 29.6663 121.788 29.582 122.419 29.582C123.387 29.582 124.23 29.7837 124.949 30.187H128.084ZM132.361 24.72V41H129.996V24.72H132.361ZM142.639 34.125C142.639 33.729 142.58 33.3623 142.463 33.025C142.353 32.6803 142.188 32.3833 141.968 32.134C141.748 31.8773 141.473 31.6793 141.143 31.54C140.82 31.3933 140.446 31.32 140.021 31.32C139.163 31.32 138.488 31.5657 137.997 32.057C137.506 32.5483 137.194 33.2377 137.062 34.125H142.639ZM136.996 35.577C137.025 36.215 137.124 36.7687 137.293 37.238C137.462 37.7 137.685 38.085 137.964 38.393C138.25 38.701 138.587 38.932 138.976 39.086C139.372 39.2327 139.812 39.306 140.296 39.306C140.758 39.306 141.158 39.2547 141.495 39.152C141.832 39.042 142.126 38.9247 142.375 38.8C142.624 38.668 142.837 38.5507 143.013 38.448C143.189 38.338 143.35 38.283 143.497 38.283C143.688 38.283 143.834 38.3563 143.937 38.503L144.608 39.372C144.329 39.702 144.014 39.9807 143.662 40.208C143.31 40.4353 142.936 40.6223 142.54 40.769C142.144 40.9083 141.737 41.0073 141.319 41.066C140.901 41.132 140.494 41.165 140.098 41.165C139.321 41.165 138.598 41.0367 137.931 40.78C137.271 40.516 136.695 40.131 136.204 39.625C135.72 39.119 135.339 38.492 135.06 37.744C134.789 36.996 134.653 36.1343 134.653 35.159C134.653 34.3817 134.774 33.6557 135.016 32.981C135.265 32.3063 135.617 31.7197 136.072 31.221C136.534 30.7223 137.091 30.33 137.744 30.044C138.404 29.7507 139.148 29.604 139.977 29.604C140.666 29.604 141.304 29.7177 141.891 29.945C142.478 30.165 142.984 30.4913 143.409 30.924C143.834 31.3567 144.164 31.8883 144.399 32.519C144.641 33.1423 144.762 33.8537 144.762 34.653C144.762 35.0197 144.722 35.2653 144.641 35.39C144.56 35.5147 144.414 35.577 144.201 35.577H136.996ZM157.814 33.234C158.386 33.234 158.888 33.1607 159.321 33.014C159.761 32.8673 160.124 32.662 160.41 32.398C160.703 32.1267 160.923 31.8003 161.07 31.419C161.217 31.0377 161.29 30.6123 161.29 30.143C161.29 29.681 161.217 29.2667 161.07 28.9C160.931 28.5333 160.718 28.2217 160.432 27.965C160.146 27.7083 159.783 27.514 159.343 27.382C158.91 27.2427 158.401 27.173 157.814 27.173H155.46V33.234H157.814ZM157.814 25.16C158.848 25.16 159.743 25.281 160.498 25.523C161.261 25.765 161.888 26.106 162.379 26.546C162.878 26.9787 163.248 27.503 163.49 28.119C163.732 28.7277 163.853 29.4023 163.853 30.143C163.853 30.8983 163.725 31.5913 163.468 32.222C163.211 32.8453 162.83 33.3843 162.324 33.839C161.818 34.2863 161.187 34.6383 160.432 34.895C159.684 35.1443 158.811 35.269 157.814 35.269H155.46V41H152.886V25.16H157.814ZM168.218 24.72V41H165.853V24.72H168.218ZM177.132 36.094C176.289 36.1233 175.578 36.193 174.998 36.303C174.419 36.4057 173.95 36.5413 173.59 36.71C173.231 36.8713 172.971 37.0657 172.809 37.293C172.655 37.5203 172.578 37.7697 172.578 38.041C172.578 38.305 172.619 38.5323 172.699 38.723C172.787 38.9063 172.905 39.0603 173.051 39.185C173.205 39.3023 173.381 39.3903 173.579 39.449C173.785 39.5003 174.008 39.526 174.25 39.526C174.866 39.526 175.394 39.4123 175.834 39.185C176.282 38.9503 176.714 38.613 177.132 38.173V36.094ZM170.862 31.342C172.131 30.1613 173.642 29.571 175.394 29.571C176.04 29.571 176.612 29.6773 177.11 29.89C177.616 30.0953 178.038 30.3887 178.375 30.77C178.72 31.1513 178.98 31.606 179.156 32.134C179.34 32.6547 179.431 33.234 179.431 33.872V41H178.375C178.148 41 177.976 40.967 177.858 40.901C177.741 40.8277 177.642 40.6847 177.561 40.472L177.33 39.559C177.044 39.8157 176.762 40.0467 176.483 40.252C176.205 40.45 175.915 40.6187 175.614 40.758C175.321 40.8973 175.002 41 174.657 41.066C174.32 41.1393 173.946 41.176 173.535 41.176C173.081 41.176 172.655 41.1137 172.259 40.989C171.871 40.8643 171.533 40.6773 171.247 40.428C170.961 40.1713 170.734 39.856 170.565 39.482C170.404 39.108 170.323 38.668 170.323 38.162C170.323 37.7293 170.437 37.3077 170.664 36.897C170.899 36.4863 171.28 36.1197 171.808 35.797C172.344 35.467 173.044 35.1957 173.909 34.983C174.782 34.7703 175.856 34.6493 177.132 34.62V33.872C177.132 33.0653 176.96 32.464 176.615 32.068C176.271 31.672 175.765 31.474 175.097 31.474C174.643 31.474 174.261 31.5327 173.953 31.65C173.645 31.76 173.378 31.881 173.15 32.013C172.923 32.145 172.721 32.2697 172.545 32.387C172.369 32.497 172.182 32.552 171.984 32.552C171.823 32.552 171.684 32.5117 171.566 32.431C171.456 32.343 171.365 32.2367 171.291 32.112L170.862 31.342ZM191.856 29.78L185.674 44.19C185.593 44.3587 185.494 44.4907 185.377 44.586C185.267 44.6813 185.095 44.729 184.86 44.729H183.111L185.179 40.241L180.603 29.78H182.66C182.858 29.78 183.008 29.8277 183.111 29.923C183.221 30.011 183.302 30.1173 183.353 30.242L186.026 36.611C186.092 36.7943 186.151 36.9777 186.202 37.161C186.261 37.337 186.316 37.5203 186.367 37.711C186.426 37.5203 186.484 37.3333 186.543 37.15C186.602 36.9667 186.668 36.7833 186.741 36.6L189.304 30.242C189.355 30.11 189.44 30 189.557 29.912C189.682 29.824 189.817 29.78 189.964 29.78H191.856Z" fill="black"/>
<defs>
<linearGradient id="paint0_linear_415_1070" x1="60.1381" y1="32.0076" x2="40.1335" y2="32.0076" gradientUnits="userSpaceOnUse">
<stop stop-color="#FEE000"/>
<stop offset="0.42" stop-color="#FBBC0E"/>
<stop offset="0.78" stop-color="#FAA418"/>
<stop offset="1" stop-color="#F99B1C"/>
</linearGradient>
<linearGradient id="paint1_linear_415_1070" x1="54.9489" y1="33.8836" x2="36.3522" y2="52.6937" gradientUnits="userSpaceOnUse">
<stop stop-color="#EF4547"/>
<stop offset="1" stop-color="#C6186D"/>
</linearGradient>
<linearGradient id="paint2_linear_415_1070" x1="36.0496" y1="11.4574" x2="51.2298" y2="26.8161" gradientUnits="userSpaceOnUse">
<stop stop-color="#279E6F"/>
<stop offset="0.04" stop-color="#2BA06F"/>
<stop offset="0.46" stop-color="#53B26C"/>
<stop offset="0.8" stop-color="#6BBD6A"/>
<stop offset="1" stop-color="#74C169"/>
</linearGradient>
</defs>
</svg>
