<svg viewBox="0 0 33 31" fill="none" xmlns="http://www.w3.org/2000/svg">
  <path fill-rule="evenodd" clip-rule="evenodd" d="M24.167 23.6281C24.106 23.6281 24.047 23.6211 23.986 23.6191C23.46 27.3611 20.256 30.2411 16.37 30.2411C12.484 30.2411 9.28 27.3611 8.754 23.6191C8.693 23.6211 8.63399 23.6281 8.57299 23.6281C4.31899 23.6281 0.869995 20.1871 0.869995 15.9401C0.869995 11.6951 4.31899 8.25411 8.57299 8.25411C8.61099 8.25411 8.648 8.25911 8.686 8.26011C8.725 4.03911 12.149 0.628113 16.37 0.628113C20.591 0.628113 24.015 4.03911 24.054 8.26011C24.092 8.25911 24.129 8.25411 24.167 8.25411C28.421 8.25411 31.87 11.6951 31.87 15.9401C31.87 20.1871 28.421 23.6281 24.167 23.6281Z" fill="#608BFF" stroke="#246CE7"/>
  <path fill-rule="evenodd" clip-rule="evenodd" d="M19.5159 4.96611L21.3449 6.79511C21.9309 7.38011 21.9309 8.33011 21.3449 8.91611C20.7589 9.50211 19.8099 9.50211 19.2229 8.91611L17.3949 7.08711C16.8089 6.50211 16.8089 5.55211 17.3949 4.96611C17.9809 4.38011 18.9309 4.38011 19.5159 4.96611Z" fill="white"/>
</svg>
