<?xml version="1.0" encoding="utf-8"?>
<!-- Generator: Adobe Illustrator 27.0.0, SVG Export Plug-In . SVG Version: 6.00 Build 0)  -->
<svg version="1.1" id="Layer_1" xmlns="http://www.w3.org/2000/svg" xmlns:xlink="http://www.w3.org/1999/xlink" x="0px" y="0px"
	 viewBox="0 0 62 62" style="enable-background:new 0 0 62 62;" xml:space="preserve">
<style type="text/css">
	.st0{fill:#321700;stroke:#C08D55;}
	.st1{fill:#321700;stroke:#C08D55;stroke-width:1.5;}
	.st2{fill:#C08D55;}
	.st3{fill:#C08D55;stroke:#C08D55;stroke-width:0.5;}
</style>
<g>
	<path class="st0" d="M31,1.1l26,15v30l-26,15l-26-15v-30L31,1.1z"/>
	<path class="st1" d="M31,1.1l26,15v30l-26,15l-26-15v-30L31,1.1z"/>
</g>
<g>
	<path class="st2" d="M19.3,19.5l0.6-0.6l22.7,22.7l-0.6,0.6L19.3,19.5L19.3,19.5z"/>
	<path class="st2" d="M39.4,41.4l1,1l4.2,2.2l-2.2-4.2l-1-1L39.4,41.4L39.4,41.4z M17.3,19.3l1,1l4.2,2.2l-2.2-4.2l-1-1l-0.1,1.9
		C19.2,19.2,17.3,19.3,17.3,19.3z M43.5,18.9l0.6,0.6L21.3,42.2l-0.6-0.6L43.5,18.9z"/>
	<path class="st2" d="M20.6,39.4l-1,1l-2.2,4.2l4.2-2.2l1-1L20.6,39.4L20.6,39.4z M42.7,17.3l-1,1l-2.2,4.2l4.2-2.2l1-1l-1.9-0.1
		L42.7,17.3L42.7,17.3z"/>
	<path class="st3" d="M19.3,19.5l0.6-0.6l22.7,22.7l-0.6,0.6L19.3,19.5L19.3,19.5z"/>
	<path class="st3" d="M39.4,41.4l1,1l4.2,2.2l-2.2-4.2l-1-1L39.4,41.4L39.4,41.4z M17.3,19.3l1,1l4.2,2.2l-2.2-4.2l-1-1l-0.1,1.9
		C19.2,19.2,17.3,19.3,17.3,19.3z M43.5,18.9l0.6,0.6L21.3,42.2l-0.6-0.6L43.5,18.9z"/>
	<path class="st3" d="M20.6,39.4l-1,1l-2.2,4.2l4.2-2.2l1-1L20.6,39.4L20.6,39.4z M42.7,17.3l-1,1l-2.2,4.2l4.2-2.2l1-1l-1.9-0.1
		L42.7,17.3L42.7,17.3z"/>
</g>
</svg>
