<svg viewBox="0 0 675 71" xmlns="http://www.w3.org/2000/svg" class="css-1qntfi7">
      <path d="M514.414 51.922h-.062c-.963 1.715-2.386 2.97-4.269 3.765a14.273 14.273 0 01-5.712 1.193c-1.967 0-3.767-.335-5.399-1.004a12.122 12.122 0 01-4.269-2.762c-1.213-1.255-2.155-2.782-2.825-4.58-.669-1.8-1.004-3.85-1.004-6.151v-5.334c0-2.301.335-4.352 1.004-6.15.67-1.8 1.591-3.306 2.763-4.519a11.712 11.712 0 014.268-2.824c1.674-.67 3.474-1.004 5.399-1.004 2.511 0 4.603.481 6.277 1.443 1.716.963 3.013 2.071 3.892 3.326V23.18h4.206V56.44c0 4.812-1.255 8.43-3.766 10.857-2.47 2.469-5.818 3.703-10.044 3.703-2.386 0-4.52-.314-6.403-.941-1.842-.628-3.474-1.486-4.897-2.573l1.946-3.326c.796.543 1.549.983 2.26 1.317.712.377 1.423.67 2.135.879.753.251 1.527.418 2.322.502.795.084 1.674.126 2.637.126 3.138 0 5.503-.858 7.093-2.573 1.632-1.674 2.448-4.289 2.448-7.845v-4.644zm-19.271-10.167c0 3.64.858 6.443 2.573 8.41 1.716 1.966 3.997 2.95 6.843 2.95 1.381 0 2.657-.168 3.829-.503 1.214-.376 2.26-.92 3.139-1.631a7.999 7.999 0 002.071-2.762c.544-1.13.816-2.447.816-3.953v-9.54c0-1.003-.251-1.987-.753-2.949-.46-1.004-1.13-1.904-2.009-2.698-.879-.837-1.925-1.507-3.138-2.009-1.214-.502-2.532-.753-3.955-.753-2.888 0-5.189 1.004-6.905 3.013-1.674 1.966-2.511 4.748-2.511 8.346v4.08zM537.961 57.507c-3.222 0-5.838-.857-7.847-2.573-2.009-1.715-3.013-4.079-3.013-7.091v-1.38c0-2.762 1.004-5 3.013-6.716 2.009-1.715 4.98-2.573 8.914-2.573h9.542v-3.138c0-2.468-.691-4.35-2.072-5.648-1.339-1.339-3.327-2.008-5.963-2.008-1.842 0-3.599.335-5.273 1.004a21.856 21.856 0 00-4.708 2.448l-2.072-3.264a28.712 28.712 0 015.273-2.824c1.967-.795 4.248-1.192 6.842-1.192 3.809 0 6.78.941 8.914 2.824 2.177 1.883 3.265 4.54 3.265 7.97v23.66h-4.143v-4.143h-.063c-.335.544-.837 1.11-1.507 1.695-.628.544-1.381 1.046-2.26 1.506-1.925.962-4.206 1.443-6.842 1.443zm10.609-16.756h-9.479c-2.72 0-4.687.544-5.901 1.632-1.213 1.088-1.82 2.51-1.82 4.267v1.005c0 1.087.209 2.029.627 2.824.419.753.963 1.38 1.633 1.882a7.964 7.964 0 002.322 1.13c.879.21 1.758.314 2.637.314 1.339 0 2.553-.168 3.641-.502a13.262 13.262 0 003.138-1.444 7.882 7.882 0 002.26-2.134c.628-.878.942-1.966.942-3.263v-5.71zM596.479 22.552c3.85 0 6.654 1.046 8.412 3.138 1.799 2.092 2.699 4.937 2.699 8.535v22.78h-4.269v-21.65c0-1.381-.125-2.616-.376-3.703-.209-1.088-.607-2.009-1.193-2.762-.544-.795-1.318-1.401-2.323-1.82-.962-.418-2.197-.627-3.703-.627-1.381 0-2.595.25-3.641.753a9.097 9.097 0 00-2.699 1.945 9.464 9.464 0 00-1.695 2.699c-.377 1.004-.586 1.987-.628 2.95v22.215h-4.269v-21.65c0-1.381-.125-2.616-.376-3.703-.21-1.088-.607-2.009-1.193-2.762-.544-.795-1.318-1.401-2.323-1.82-.962-.418-2.197-.627-3.703-.627-1.381 0-2.616.272-3.704.816a8.398 8.398 0 00-2.762 2.008 9.272 9.272 0 00-1.632 2.761 8.518 8.518 0 00-.565 3.013v21.964h-4.269V23.18h4.206v4.707c.377-.67.837-1.318 1.381-1.945a9.407 9.407 0 012.072-1.757c.795-.503 1.674-.9 2.636-1.193 1.005-.293 2.135-.44 3.39-.44 2.72 0 4.917.545 6.591 1.633 1.674 1.046 2.888 2.552 3.641 4.518a12.8 12.8 0 011.444-2.134 11.21 11.21 0 012.197-2.008 12.897 12.897 0 012.95-1.443c1.13-.377 2.365-.565 3.704-.565zM638.91 37.864V37.3c0-3.556-.816-6.276-2.448-8.159-1.632-1.882-3.934-2.824-6.905-2.824-3.014 0-5.357 1.004-7.031 3.013-1.632 1.966-2.448 4.623-2.448 7.97v.565h18.832zm3.515 15.815c-1.339.962-3.013 1.841-5.022 2.636-2.008.795-4.436 1.192-7.281 1.192-4.52 0-8.036-1.338-10.547-4.016-2.51-2.72-3.766-6.548-3.766-11.485v-4.204c0-4.812 1.214-8.556 3.641-11.234 2.469-2.677 5.838-4.016 10.107-4.016 4.436 0 7.804 1.38 10.106 4.142 2.344 2.72 3.515 6.464 3.515 11.233v3.515h-23.1v.564c0 3.766.899 6.674 2.699 8.724 1.799 2.008 4.269 3.012 7.407 3.012 2.26 0 4.248-.335 5.964-1.004 1.716-.67 3.18-1.444 4.394-2.322l1.883 3.263zM662.32 53.68c2.762 0 4.854-.545 6.277-1.633 1.423-1.087 2.134-2.363 2.134-3.828v-.627c0-1.716-.711-3.012-2.134-3.891-1.381-.879-3.704-1.632-6.968-2.26-1.716-.334-3.264-.732-4.645-1.192-1.381-.46-2.553-1.046-3.515-1.757-.963-.711-1.716-1.548-2.26-2.51-.544-1.004-.816-2.197-.816-3.577v-.879a8.14 8.14 0 01.753-3.451c.502-1.088 1.255-2.03 2.26-2.825 1.004-.836 2.26-1.485 3.766-1.945 1.549-.502 3.369-.753 5.462-.753 2.594 0 4.833.335 6.716 1.004 1.884.628 3.516 1.464 4.897 2.51l-1.946 3.2c-1.423-.961-2.867-1.694-4.332-2.196-1.464-.502-3.285-.753-5.461-.753-2.553 0-4.499.523-5.838 1.57-1.339 1.003-2.009 2.238-2.009 3.702v.69c0 1.464.733 2.615 2.197 3.452 1.507.837 3.599 1.506 6.278 2.008 4.185.795 7.198 1.925 9.039 3.389 1.883 1.464 2.825 3.556 2.825 6.276v.94a7.493 7.493 0 01-.942 3.703c-.627 1.13-1.506 2.113-2.636 2.95-1.088.795-2.386 1.402-3.892 1.82-1.507.46-3.16.69-4.959.69-2.762 0-5.231-.376-7.408-1.13-2.134-.71-3.996-1.652-5.586-2.823l2.071-3.39a24.272 24.272 0 004.959 2.574c1.8.627 3.704.941 5.713.941zM0 1.486h23.215c17.571 0 32.01 12.427 32.01 28.368 0 15.98-14.539 28.348-32.01 28.348H0V1.486zm16.367 44.248h3.685c9.78 0 18.124-4.818 18.124-15.88 0-10.149-7.43-15.87-17.954-15.87h-3.855v31.75zM75.85 13.993v9.496h18.465v12.468H75.85v9.777h19.459v12.477H59.473V1.486h35.836v12.507h-19.46zM128.484 35.957l15.293-34.471h17.792l-26.91 56.726h-12.701L95.51 1.486h17.772l15.202 34.47zM196.903 16.091c-3.002-2.248-6.837-3.744-10.864-3.744-2.992 0-7.019 1.566-7.019 4.728 0 3.323 4.439 4.587 7.28 5.42l4.177 1.125c8.776 2.329 15.544 6.324 15.544 15.499 0 5.651-1.507 11.443-6.527 15.288-4.92 3.734-11.517 5.33-17.883 5.33-7.922 0-15.714-2.409-22.13-6.464l6.998-11.906c4.127 3.243 8.947 5.853 14.56 5.853 3.845 0 7.942-1.717 7.942-5.702 0-4.116-6.456-5.571-9.961-6.475-10.271-2.63-17.059-5.049-17.059-16C161.971 7.519 171.108 0 183.71 0c6.356 0 14.117 1.817 19.72 4.678l-6.527 11.413zM226.826 58.212h-16.397V1.486h16.397v56.726zM268.757 16.091c-3.003-2.248-6.858-3.744-10.845-3.744-3.032 0-7.018 1.566-7.018 4.728 0 3.323 4.428 4.587 7.259 5.42l4.177 1.125c8.776 2.329 15.534 6.324 15.534 15.499 0 5.651-1.516 11.443-6.527 15.288-4.93 3.734-11.517 5.33-17.873 5.33-7.922 0-15.714-2.409-22.14-6.464l7.019-11.906c4.076 3.243 8.946 5.853 14.539 5.853 3.835 0 7.922-1.717 7.922-5.702 0-4.116-6.446-5.571-9.93-6.475-10.282-2.63-17.05-5.049-17.05-16C233.834 7.519 242.941 0 255.553 0c6.336 0 14.117 1.817 19.72 4.678l-6.516 11.413zM290.977 58.212V13.992h-13.525V1.486h43.437v12.507h-13.535v44.219h-16.377zM339.857 13.993v9.496h18.455v12.468h-18.455v9.777h19.469v12.477H323.49V1.486h35.836v12.507h-19.469zM418.478 58.212h-20.384l-15.473-21.803h-.14v21.803h-16.387V1.486h24.48c12.461 0 21.909 5.38 21.909 17.466 0 7.83-4.88 14.586-13.796 16.021l19.791 23.239zm-36.007-31.28h1.576c5.352 0 11.366-.913 11.366-7.096 0-6.134-6.014-7.057-11.366-7.057h-1.576v14.154z" fill="#aeaeb3"/>
      <path d="M452.456 16.091c-2.992-2.248-6.838-3.744-10.844-3.744-3.032 0-7.009 1.566-7.009 4.728 0 3.323 4.408 4.587 7.25 5.42l4.177 1.125c8.776 2.329 15.543 6.324 15.543 15.499 0 5.651-1.486 11.443-6.526 15.288-4.93 3.734-11.517 5.33-17.863 5.33-7.943 0-15.704-2.409-22.15-6.464l7.018-11.906c4.117 3.243 8.947 5.853 14.539 5.853 3.836 0 7.943-1.717 7.943-5.702 0-4.116-6.426-5.571-9.931-6.475-10.302-2.63-17.059-5.049-17.059-16C417.544 7.519 426.651 0 439.272 0c6.356 0 14.098 1.817 19.721 4.678l-6.537 11.413z" fill="#aeaeb3"/>
    </svg>