<svg width="70" height="123" viewBox="0 0 70 123" fill="none" xmlns="http://www.w3.org/2000/svg">
  <path fill-rule="evenodd" clip-rule="evenodd" d="M66.0001 116.411L23.6591 62.7879L66.0001 7.58766H70.0001V116.411H66.0001ZM64.5001 4.19418C63.3401 4.19418 62.4001 3.25471 62.4001 2.09659C62.4001 0.938474 63.3401 0 64.5001 0C65.6601 0 66.6001 0.938474 66.6001 2.09659C66.6001 3.25471 65.6601 4.19418 64.5001 4.19418ZM20.6021 56.2066L60.6021 6.28778L61.3981 6.89179L21.3981 56.8106L20.6021 56.2066ZM11.9481 77.1825C10.5061 75.4992 7.55806 69.9123 11.0181 66.2682C7.01306 66.9112 3.62406 66.437 0.784058 62.713C3.35806 60.0593 5.50006 58.6736 11.0181 59.3425C7.17606 51.8866 11.9481 48.1327 11.9481 48.1327C12.5551 52.0254 12.5431 55.0874 14.6021 58.0217C16.0601 60.0993 19.2941 61.502 21.2491 62.713C15.5001 65.4945 12.6731 70.3406 11.9481 77.1825ZM60.9921 117.789L60.1921 118.397L20.0081 68.1083L20.8081 67.5012L60.9921 117.789ZM64.5001 118.807C65.6601 118.807 66.6001 119.745 66.6001 120.903C66.6001 122.062 65.6601 123 64.5001 123C63.3401 123 62.4001 122.062 62.4001 120.903C62.4001 119.745 63.3401 118.807 64.5001 118.807Z" fill="url(#paint0_linear)"/>
  <defs>
    <linearGradient id="paint0_linear" x1="35.3921" y1="0" x2="35.3921" y2="123" gradientUnits="userSpaceOnUse">
      <stop stop-color="#FFF276"/>
      <stop offset="0.630208" stop-color="#FFE81E"/>
      <stop offset="1" stop-color="#FEC60D"/>
    </linearGradient>
  </defs>
</svg>
