<svg viewBox="0 0 31 31" fill="none" xmlns="http://www.w3.org/2000/svg">
  <path fill-rule="evenodd" clip-rule="evenodd" d="M0.879 13.3132L13.314 0.87825C14.485 -0.29275 16.385 -0.29275 17.556 0.87825L29.991 13.3132C31.163 14.4842 31.163 16.3832 29.991 17.5562L17.556 29.9902C16.385 31.1622 14.485 31.1622 13.314 29.9902L0.879 17.5562C-0.293 16.3832 -0.293 14.4842 0.879 13.3132Z" fill="#008817"/>
  <path fill-rule="evenodd" clip-rule="evenodd" d="M18.081 4.96027L20.91 7.78827C21.495 8.37427 21.495 9.32427 20.91 9.91027C20.324 10.4943 19.374 10.4943 18.788 9.91027L15.96 7.08127C15.374 6.49527 15.374 5.54527 15.96 4.96027C16.546 4.37327 17.496 4.37327 18.081 4.96027Z" fill="white"/>
</svg>
