<svg width="44" height="64" viewBox="0 0 44 59" fill="none" xmlns="http://www.w3.org/2000/svg">
      <g opacity="0.8">
        <path class="button_svg__triangle" d="M18 24h8.403l-4.201 6L18 24z" fill="#FFE895" fill-opacity="0.6"/>
        <path class="button_svg__triangle" d="M4 16.995h36.5L22.225 42 4 16.995zM0 15l22.225 30L44 15H0z" fill="#FFE895" fill-opacity="0.6"/>
        <path d="M12.595 40.155l9.63 13.45 9.63-13.45h2.11L22.225 56l-11.74-15.845h2.11z" fill="#FFE895" fill-opacity="0.6" style="&#10;            animation-name: bounceFadeOut;&#10;            animation-duration: 1.5s;&#10;            animation-delay: 0s;&#10;            animation-timing-function: ease;&#10;            animation-iteration-count: infinite;&#10;          "/>
        <path d="M3.624 10.156c1.812 0 2.952-1.08 2.952-2.46 0-1.308-.816-1.908-1.824-2.352l-1.272-.54c-.672-.288-1.464-.624-1.464-1.524 0-.828.684-1.344 1.704-1.344.84 0 1.488.324 2.028.84l.528-.636c-.6-.636-1.5-1.08-2.556-1.08-1.56 0-2.712.96-2.712 2.292 0 1.284.972 1.884 1.788 2.232l1.272.564c.84.372 1.5.672 1.5 1.62 0 .9-.732 1.512-1.932 1.512-.936 0-1.824-.432-2.46-1.116l-.6.684a4.103 4.103 0 003.048 1.308zm7.966 0c1.14 0 1.992-.456 2.676-1.26l-.552-.624c-.576.648-1.224 1.008-2.076 1.008-1.728 0-2.808-1.428-2.808-3.696 0-2.256 1.128-3.648 2.844-3.648.768 0 1.368.336 1.824.84l.552-.648a3.225 3.225 0 00-2.388-1.068c-2.22 0-3.852 1.728-3.852 4.548 0 2.844 1.608 4.548 3.78 4.548zm5.337-8.136h1.536c1.416 0 2.196.432 2.196 1.632 0 1.176-.78 1.74-2.196 1.74h-1.536V2.02zM21.883 10l-2.268-3.888c1.236-.276 2.04-1.08 2.04-2.46 0-1.8-1.248-2.436-3.036-2.436h-2.688V10h.996V6.208h1.644L20.767 10h1.116zm4.764.156c2.184 0 3.72-1.776 3.72-4.584 0-2.796-1.537-4.512-3.72-4.512-2.172 0-3.708 1.716-3.708 4.512 0 2.808 1.535 4.584 3.707 4.584zm0-.876c-1.62 0-2.688-1.452-2.688-3.708 0-2.244 1.067-3.636 2.688-3.636 1.632 0 2.7 1.392 2.7 3.636 0 2.256-1.069 3.708-2.7 3.708zm5.655.72h4.872v-.84h-3.876V1.216h-.996V10zm6.434 0h4.872v-.84h-3.876V1.216h-.996V10z" fill="#ADA06E"/>
      </g>
    </svg>