<svg viewBox="0 0 70 70" fill="none" xmlns="http://www.w3.org/2000/svg">
            <circle cx="35" cy="35" r="35" fill="#3C5C99"/>
            <path fill-rule="evenodd" clip-rule="evenodd" d="M30.536 43.214c0-2.74-.01-5.48.009-8.219.003-.461-.124-.607-.575-.588-.836.034-1.674-.003-2.51.015-.339.01-.463-.086-.46-.453.017-1.71.015-3.42.002-5.13-.003-.33.094-.436.419-.43.856.02 1.713-.025 2.567.018.495.025.596-.154.587-.623a86.062 86.062 0 01-.001-3.906c.033-1.59.451-3.074 1.378-4.366 1.17-1.634 2.836-2.382 4.76-2.47 1.974-.09 3.953-.04 5.929-.062.276-.003.357.098.357.372-.009 1.728-.01 3.458.002 5.187.003.308-.096.402-.39.396-.952-.015-1.903-.008-2.852-.005-1.266.005-2.023.67-2.102 1.95-.064 1.026-.017 2.059-.04 3.09-.01.366.204.341.441.341 1.445-.001 2.891.014 4.336-.01.424-.008.563.092.515.547a234.633 234.633 0 00-.482 5.161c-.033.389-.206.463-.548.457-1.14-.019-2.28-.012-3.422-.005-.82.005-.74-.122-.74.732-.004 5.362-.01 10.726.013 16.089.003.566-.14.707-.688.696a148.68 148.68 0 00-5.875.002c-.551.01-.642-.18-.638-.683.019-2.702.008-5.402.008-8.103z" fill="#fff"/></svg>