<svg viewBox="0 0 70 70" fill="none" xmlns="http://www.w3.org/2000/svg">
            <circle cx="35" cy="35" r="35" fill="#37AEE1"/>
            <path d="M29.693 49.213c12.831 0 19.847-10.854 19.847-20.264 0-.31-.006-.616-.02-.921A14.368 14.368 0 0053 24.34c-1.25.567-2.595.948-4.006 1.121a7.122 7.122 0 003.067-3.94 13.807 13.807 0 01-4.43 1.729 6.897 6.897 0 00-5.09-2.25c-3.853 0-6.977 3.19-6.977 7.122 0 .559.06 1.102.181 1.624-5.797-.298-10.938-3.132-14.379-7.442a7.211 7.211 0 00-.945 3.58 7.157 7.157 0 003.104 5.929 6.813 6.813 0 01-3.159-.891c-.002.03-.002.06-.002.09 0 3.45 2.405 6.33 5.597 6.983a6.814 6.814 0 01-3.15.122c.888 2.83 3.463 4.89 6.518 4.947a13.82 13.82 0 01-8.665 3.05c-.563 0-1.118-.033-1.664-.099a19.46 19.46 0 0010.693 3.198z" fill="#fff"/></svg>