<svg viewBox="0 0 70 70" fill="none" xmlns="http://www.w3.org/2000/svg">
            <circle cx="35" cy="35" r="35" fill="#C7252D"/>
            <path fill-rule="evenodd" clip-rule="evenodd" d="M50.52 21.854a5.146 5.146 0 013.627 3.627C55 28.675 55 35.35 55 35.35s0 6.67-.853 9.868a5.146 5.146 0 01-3.628 3.628c-3.197.853-16.019.853-16.019.853s-12.815 0-16.02-.853a5.146 5.146 0 01-3.627-3.628C14 42.021 14 35.35 14 35.35s0-6.675.854-9.87a5.152 5.152 0 013.627-3.627C21.685 21 34.5 21 34.5 21s12.822 0 16.02.854zm-9.595 13.455l-10.65 6.15v-12.3l10.65 6.15z" fill="#fff"/></svg>