<svg viewBox="0 0 41 41" fill="none" xmlns="http://www.w3.org/2000/svg">
      <path clip-rule="evenodd" d="M.473 20.899L20.1 1.27l19.628 19.628-19.628 19.628L.473 20.9z" stroke="#FFF3CD" stroke-width="0.5"/>
      <path clip-rule="evenodd" d="M37.66 26.238L24.886 39.014a8.938 8.938 0 00-9.602-.033L2.35 26.047a8.927 8.927 0 00-.307-9.99L14.705 3.396a8.924 8.924 0 0010.64-.151l12.74 12.74a8.935 8.935 0 00-.424 10.254z" stroke="#FFF3CD" stroke-width="0.5"/>
      <path d="M22 13l-5 4h-4v6h4l5 4V13zM26.54 16.46a5 5 0 010 7.07" stroke="#FFF3CD" stroke-width="2" stroke-linecap="round" stroke-linejoin="round"/>
    </svg>