<?xml version="1.0" encoding="utf-8"?>
<!-- Generator: Adobe Illustrator 27.0.0, SVG Export Plug-In . SVG Version: 6.00 Build 0)  -->
<svg version="1.1" id="Layer_1" xmlns="http://www.w3.org/2000/svg" xmlns:xlink="http://www.w3.org/1999/xlink" x="0px" y="0px"
	 viewBox="0 0 40 36" style="enable-background:new 0 0 40 36;" xml:space="preserve">
<style type="text/css">
	.st0{fill:#4285F4;}
	.st1{fill:#FBBC05;}
	.st2{fill:#EA4335;}
	.st3{fill:#34A853;}
</style>
<g id="Layer_2_00000179646263497000307870000000223316843157221293_">
	<g id="Layer_1-2">
		<path class="st0" d="M20,16.1c-1.4,0-2.5,1-2.5,2.4c0,0,0,0.1,0,0.1c0,0.7,0.2,1.3,0.7,1.8c0.5,0.5,1.1,0.7,1.8,0.7
			c1.4,0,2.5-1.1,2.6-2.5c0,0,0-0.1,0-0.1c0-0.7-0.2-1.3-0.7-1.8C21.3,16.4,20.7,16.1,20,16.1z"/>
		<path class="st1" d="M15.8,22.5c-0.5,0-0.9-0.4-0.9-0.9v-2.8L14,18.1v4.4c0,0.2,0.1,0.5,0.3,0.6c0.2,0.2,0.4,0.3,0.6,0.3h4.4
			l-0.6-0.9H15.8z"/>
		<path class="st2" d="M25.1,16.7v4.9c0,0.5-0.4,0.9-0.9,0.9h-5.5l0.6,0.9h5.8c0.2,0,0.5-0.1,0.6-0.3c0.2-0.2,0.3-0.4,0.3-0.6v-4.7
			L25.1,16.7z"/>
		<path class="st0" d="M14.9,15.7c0-0.5,0.4-0.9,0.9-0.9h7.8l-1.8-2.2h-3.6l-1.1,1.3h-2.2c-0.2,0-0.5,0.1-0.6,0.3
			c-0.2,0.2-0.3,0.4-0.3,0.6v3.3l0.9,0.7V15.7z"/>
		<path class="st3" d="M24.2,14.8c0.5,0,0.9,0.4,0.9,0.9l0,0v1l0.9,1.1v-3c0-0.2-0.1-0.5-0.3-0.6c-0.2-0.2-0.4-0.3-0.6-0.3h-2.2
			l-1.1-1.3l1.8,2.2H24.2z"/>
	</g>
</g>
</svg>
