<?xml version="1.0" encoding="utf-8"?>
<!-- Generator: Adobe Illustrator 26.5.0, SVG Export Plug-In . SVG Version: 6.00 Build 0)  -->
<svg version="1.1" id="Capa_1" xmlns="http://www.w3.org/2000/svg" xmlns:xlink="http://www.w3.org/1999/xlink" x="0px" y="0px"
	 viewBox="0 0 512 512" style="enable-background:new 0 0 512 512;" xml:space="preserve">
<g>
	<path d="M248.2,343.7c-14.6,0-26.5,12.2-26.5,26.8c0,14.3,11.5,26.8,26.5,26.8s26.8-12.5,26.8-26.8
		C275,355.9,262.8,343.7,248.2,343.7z"/>
	<path d="M252.7,140.5c-47.1,0-68.7,27.9-68.7,46.7c0,13.6,11.5,19.9,20.9,19.9c18.8,0,11.2-26.8,46.7-26.8
		c17.4,0,31.4,7.7,31.4,23.7c0,18.8-19.5,29.6-31,39.4c-10.1,8.7-23.4,23-23.4,53c0,18.1,4.9,23.4,19.2,23.4
		c17.1,0,20.6-7.7,20.6-14.3c0-18.1,0.3-28.6,19.5-43.6c9.4-7.3,39-31,39-63.8S297.3,140.5,252.7,140.5z"/>
	<path d="M256,0.5C114.5,0.5,0,115,0,256.5v236c0,11,9,20,20,20h236c141.5,0,256-114.5,256-256C512,115,397.5,0.5,256,0.5z
		 M256,472.5H40v-216c0-119.4,96.6-216,216-216c119.4,0,216,96.6,216,216C472,375.9,375.4,472.5,256,472.5z"/>
</g>
</svg>
