<svg xmlns="http://www.w3.org/2000/svg" width="37.387" height="37.387" viewBox="0 0 37.387 37.387">
  <g id="ico-search-big-dark" transform="translate(0 0)" opacity="0.87">
    <path id="합치기_19" data-name="합치기 19" d="M6114.119-340.1l-6.852-6.852a16.427,16.427,0,0,1-9.766,3.2,16.5,16.5,0,0,1-16.5-16.5,16.5,16.5,0,0,1,16.5-16.5,16.5,16.5,0,0,1,16.5,16.5,16.427,16.427,0,0,1-3.2,9.767l6.851,6.851a2.5,2.5,0,0,1,0,3.536,2.494,2.494,0,0,1-1.768.731A2.494,2.494,0,0,1,6114.119-340.1Zm-24.75-28.287a11.423,11.423,0,0,0-3.369,8.132,11.426,11.426,0,0,0,3.369,8.132,11.429,11.429,0,0,0,8.133,3.368,11.432,11.432,0,0,0,8.132-3.368,11.43,11.43,0,0,0,3.367-8.132,11.428,11.428,0,0,0-3.367-8.132,11.427,11.427,0,0,0-8.132-3.369A11.424,11.424,0,0,0,6089.369-368.387Z" transform="translate(-6081 376.756)" fill="#1c1c20"/>
  </g>
</svg>
