<svg width="14" height="17" viewBox="0 0 14 17" fill="none" xmlns="http://www.w3.org/2000/svg">
<g clip-path="url(#clip0_444_380)">
<path d="M13.0726 5.52137C12.9796 5.59367 11.3478 6.51287 11.3478 8.55777C11.3478 10.9229 13.4237 11.7595 13.4857 11.7801C13.4754 11.8317 13.1552 12.9265 12.3909 14.0419C11.7093 15.0231 10.9966 16.0042 9.91217 16.0042C8.82777 16.0042 8.54887 15.3742 7.29917 15.3742C6.08047 15.3742 5.64667 16.0249 4.65517 16.0249C3.66367 16.0249 2.97167 15.116 2.17647 14.0006C1.25727 12.6889 0.513672 10.6543 0.513672 8.72297C0.513672 5.62457 2.52767 3.98237 4.51057 3.98237C5.56407 3.98237 6.44187 4.67437 7.10287 4.67437C7.73287 4.67437 8.71407 3.94107 9.91207 3.94107C10.3666 3.94117 11.9985 3.98257 13.0726 5.52137ZM9.34417 2.62957C9.83987 2.04087 10.1911 1.22497 10.1911 0.409067C10.1911 0.295467 10.1808 0.181867 10.1601 0.0888672C9.35447 0.119867 8.39397 0.625968 7.81557 1.29727C7.36117 1.81367 6.93767 2.62957 6.93767 3.45587C6.93767 3.57977 6.95837 3.70377 6.96867 3.74507C7.02027 3.75537 7.10297 3.76577 7.18557 3.76577C7.90857 3.76567 8.81737 3.28027 9.34417 2.62957Z" fill="black"/>
</g>
<defs>
<clipPath id="clip0_444_380">
<rect width="14" height="17" fill="white"/>
</clipPath>
</defs>
</svg>
