<svg width="14" height="15" viewBox="0 0 14 15" fill="none" xmlns="http://www.w3.org/2000/svg">
<g clip-path="url(#clip0_444_388)">
<path d="M13.1984 13.3428L9.69843 9.84283C10.5801 8.763 11.0133 7.38571 10.9083 5.9956C10.8034 4.60548 10.1684 3.30881 9.13463 2.37357C8.10083 1.43833 6.74723 0.936 5.35359 0.970408C3.95994 1.00482 2.63278 1.57333 1.6464 2.55845C0.660012 3.54357 0.0897932 4.87 0.0535928 6.26359C0.0173924 7.65719 0.517977 9.01143 1.45189 10.0464C2.3858 11.0814 3.68165 11.7181 5.07163 11.8248C6.46161 11.9315 7.83946 11.5001 8.92042 10.6198L12.4204 14.1198C12.4715 14.1709 12.5322 14.2114 12.5989 14.2391C12.6656 14.2667 12.7372 14.281 12.8094 14.281C12.8817 14.281 12.9532 14.2667 13.02 14.2391C13.0867 14.2114 13.1473 14.1709 13.1984 14.1198C13.2495 14.0687 13.29 14.0081 13.3177 13.9414C13.3453 13.8746 13.3596 13.8031 13.3596 13.7308C13.3596 13.6586 13.3453 13.5871 13.3177 13.5203C13.29 13.4536 13.2495 13.3929 13.1984 13.3418V13.3428ZM1.17742 6.41783C1.17762 5.56366 1.43109 4.72872 1.90579 4.0186C2.38049 3.30847 3.05509 2.75505 3.8443 2.42831C4.63351 2.10157 5.50189 2.01618 6.33963 2.18294C7.17736 2.34971 7.94684 2.76113 8.55077 3.36519C9.15469 3.96926 9.56593 4.73883 9.7325 5.57661C9.89907 6.41438 9.81348 7.28274 9.48656 8.07187C9.15963 8.86101 8.60606 9.53549 7.89582 10.01C7.18559 10.4846 6.35059 10.7378 5.49642 10.7378C4.3511 10.7368 3.25301 10.2813 2.44324 9.4713C1.63347 8.66135 1.17821 7.56315 1.17742 6.41783Z" fill="black"/>
</g>
<defs>
<clipPath id="clip0_444_388">
<rect width="14" height="15" fill="white"/>
</clipPath>
</defs>
</svg>
