<svg width="14" height="16" viewBox="0 0 14 16" fill="none" xmlns="http://www.w3.org/2000/svg">
<path d="M13.1984 13.8428L9.69843 10.3428C10.5801 9.263 11.0133 7.88571 10.9083 6.4956C10.8034 5.10548 10.1684 3.80881 9.13463 2.87357C8.10083 1.93833 6.74723 1.436 5.35359 1.47041C3.95994 1.50482 2.63278 2.07333 1.6464 3.05845C0.660012 4.04357 0.0897932 5.37 0.0535928 6.76359C0.0173924 8.15719 0.517977 9.51143 1.45189 10.5464C2.3858 11.5814 3.68165 12.2181 5.07163 12.3248C6.46161 12.4315 7.83946 12.0001 8.92042 11.1198L12.4204 14.6198C12.4715 14.6709 12.5322 14.7114 12.5989 14.7391C12.6656 14.7667 12.7372 14.781 12.8094 14.781C12.8817 14.781 12.9532 14.7667 13.02 14.7391C13.0867 14.7114 13.1473 14.6709 13.1984 14.6198C13.2495 14.5687 13.29 14.5081 13.3177 14.4414C13.3453 14.3746 13.3596 14.3031 13.3596 14.2308C13.3596 14.1586 13.3453 14.0871 13.3177 14.0203C13.29 13.9536 13.2495 13.8929 13.1984 13.8418V13.8428ZM1.17742 6.91783C1.17762 6.06366 1.43109 5.22872 1.90579 4.5186C2.38049 3.80847 3.05509 3.25505 3.8443 2.92831C4.63351 2.60157 5.50189 2.51618 6.33963 2.68294C7.17736 2.84971 7.94684 3.26113 8.55077 3.86519C9.15469 4.46926 9.56593 5.23883 9.7325 6.07661C9.89907 6.91438 9.81348 7.78274 9.48656 8.57187C9.15963 9.36101 8.60606 10.0355 7.89582 10.51C7.18559 10.9846 6.35059 11.2378 5.49642 11.2378C4.3511 11.2368 3.25301 10.7813 2.44324 9.9713C1.63347 9.16135 1.17821 8.06315 1.17742 6.91783Z" fill="black" fill-opacity="0.8"/>
</svg>
