<svg width="14" height="16" viewBox="0 0 14 16" fill="none" xmlns="http://www.w3.org/2000/svg">
<g clip-path="url(#clip0_444_382)">
<path fill-rule="evenodd" clip-rule="evenodd" d="M12.9688 13.4C12.9688 14 12.4688 14.5 11.8687 14.5H3.06875C2.46875 14.5 1.96875 14 1.96875 13.4V5.5C1.96875 5 2.46875 4.5 3.06875 4.5H11.9688C12.5688 4.5 13.0688 5 13.0688 5.6V13.4H12.9688ZM7.46875 1.5C8.66875 1.5 9.56875 2.4 9.76875 3.5H5.16875C5.36875 2.4 6.26875 1.5 7.46875 1.5ZM11.8687 3.5H10.7688C10.5688 1.8 9.16875 0.5 7.46875 0.5C5.76875 0.5 4.36875 1.8 4.16875 3.5H3.06875C1.86875 3.5 0.96875 4.4 0.96875 5.6V13.5C0.96875 14.6 1.86875 15.5 3.06875 15.5H11.9688C13.0688 15.5 14.0688 14.6 14.0688 13.4V5.5C13.9688 4.4 13.0687 3.5 11.8687 3.5Z" fill="black" fill-opacity="0.8"/>
</g>
<defs>
<clipPath id="clip0_444_382">
<rect width="14" height="15" fill="white" transform="translate(0 0.5)"/>
</clipPath>
</defs>
</svg>
