<svg width="5133" height="837" viewBox="0 0 5133 837" fill="none" xmlns="http://www.w3.org/2000/svg">
<path d="M790 332C564 342 420 478 218 640L0 820H5130C5135.33 862.667 5134.4 850.4 5088 460C5030 -28 4538 -102 4516 120C4498.4 297.6 4251.33 412.667 4130 448C4020.67 472.667 3773.6 484 3660 332C3518 142 3330 68 3148 332C2966 596 2650 398 2592 332C2534 266 2386 176 2228 312C2070 448 1772 500 1714 448C1656 396 1462 174 1366 312C1270 450 986 526 946 448C906 370 846.265 329.51 790 332Z" fill="#016A81"/>
</svg>
