<svg width="8000" height="836" viewBox="0 0 8000 836" fill="none" xmlns="http://www.w3.org/2000/svg">
<path d="M1052 209.988C863.2 189.188 445.333 322.655 260 391.988C74.6667 461.321 0 723.988 0 723.988L8000 835.988C7856 577.321 7475.2 48.7881 7104 3.98812C6640 -52.0119 6728 499.988 6440 515.988C6152 531.988 5520 59.9881 5008 59.9881C4496 59.9881 4448 391.988 3904 449.988C3360 507.988 3170 45.9881 2658 59.9881C2146 73.9881 1854 453.988 1748 449.988C1642 445.988 1288 235.988 1052 209.988Z" fill="#0CABCB"/>
</svg>
